<svg xmlns="http://www.w3.org/2000/svg" viewBox="0 0 1613.52 564.48"><defs><style>.cls-1,.cls-8{fill:#fff;}.cls-2{fill:#666;}.cls-3{fill:gray;}.cls-4{fill:#333;}.cls-5{fill:#ffc20e;}.cls-6{fill:none;}.cls-7,.cls-9{fill:#f15d22;}.cls-8,.cls-9{stroke:#f15d22;stroke-miterlimit:10;stroke-width:7.92px;}.cls-10{fill:#3e6f20;}.cls-11{fill:#b5ee06;}.cls-12{fill:#00aeef;}</style></defs><title>100x25 Branding_04FINAL Outlines</title><g id="Layer_2" data-name="Layer 2"><rect class="cls-1" x="-11.08" y="-20.78" width="1640.94" height="598.8"/></g><g id="Smog_BOTTOM" data-name="Smog BOTTOM"><path class="cls-2" d="M1388.35,499.13a12.24,12.24,0,0,0,12.8,12.25,13,13,0,0,0,11.25-8.84c3.66,3.5,6.93,5.93,11.58,5.47,7.15-.16,13.46-6,14.37-13.56a16.43,16.43,0,0,0,11.87,3c14.69.75,26.25-10.59,28.45-24.6a24.57,24.57,0,0,0,10.43,2.28c21.46-.48,38.27-17.31,38.18-37.7h0c21.08-1.54,37.5-19.44,38.1-41.28a41.68,41.68,0,0,0-19.74-35,42.15,42.15,0,0,0-41.2-34.52A40.9,40.9,0,0,0,1464,357.9c-16.74,3.59-29.66,17.83-29.65,34.65-.61,5,.92,9.28,2.44,13.55-11,2.74-18.71,11.5-19.16,23.68.46,4.64.54,8.22,3.13,12.1l-1.06.38c-11.12-.83-19.86,8.31-19.63,19a14.29,14.29,0,0,0,1.23,6.77,16.1,16.1,0,0,0-10.42,14.55c.76,2.13.84,5.7,2.67,7.45C1389.26,491.6,1386.14,496.32,1388.35,499.13Z"/><path class="cls-3" d="M980.05,331.72a24.38,24.38,0,0,0-20.58,26.22,24.26,24.26,0,0,0,.17,43.14,23.1,23.1,0,0,0-.25,7.84,24.27,24.27,0,0,0,33.32,18.92,24.29,24.29,0,0,0,41.14,8.51,25.94,25.94,0,0,0,15.53,2.42,26.71,26.71,0,0,0,10.24-3.86,17.49,17.49,0,1,0,10.94-29.81,26.35,26.35,0,0,0-17.06-17.35c-.12-.84-.11-1.71-.24-2.56a24.24,24.24,0,0,0-21.35-19,24.92,24.92,0,0,0,.92-11.11A24.49,24.49,0,0,0,1005,334.59a21.4,21.4,0,0,0-6.61,2.16,23.32,23.32,0,0,0-18.38-5Z"/><path class="cls-3" d="M831.9,157.62a24.37,24.37,0,0,0,4-33.08,24.26,24.26,0,0,0-22.53-36.79,23,23,0,0,0-3.85-6.83,24.49,24.49,0,0,0-34.38-3.1A25.06,25.06,0,0,0,771.2,82a24.29,24.29,0,0,0-39.58,14.07,26,26,0,0,0-14.53,6,26.79,26.79,0,0,0-6.75,8.61,17.49,17.49,0,1,0,6.11,31.17,26.34,26.34,0,0,0,23.58,6c.55.66,1,1.41,1.54,2.07a24.23,24.23,0,0,0,28.11,5.16,24.83,24.83,0,0,0,5,10,24.5,24.5,0,0,0,34.39,3.1,21.81,21.81,0,0,0,4.53-5.27,23.29,23.29,0,0,0,18.31-5.25Z"/><path class="cls-3" d="M532.39,129.63a28.39,28.39,0,0,0-4.85-38.52A28.26,28.26,0,0,0,491.67,55.9a26.65,26.65,0,0,0-6.27-6.64,28.54,28.54,0,0,0-39.74,6.23,28.85,28.85,0,0,0-3.24,5.86,28.29,28.29,0,0,0-40.76,27.09,30.23,30.23,0,0,0-14.72,10.88,30.89,30.89,0,0,0-5.2,11.64,20.37,20.37,0,1,0,15.71,33.49,30.7,30.7,0,0,0,28.35.09c.8.59,1.51,1.31,2.32,1.9a28.23,28.23,0,0,0,33.23-2.11,28.84,28.84,0,0,0,8.45,9.86A28.53,28.53,0,0,0,509.54,148a25,25,0,0,0,3.62-7.23,27.18,27.18,0,0,0,19.22-11.11Z"/></g><g id="Smog_outline_BOTTOM" data-name="Smog outline BOTTOM"><path class="cls-4" d="M1406.32,508.08c-4-.05-5.83-5-5.12-8.33,1-4.85,5.76-8.11,9.55-10.77,1.1-.77.86-2.93-.76-2.79-5.22.42-8-5.06-8.06-9.61-.1-6.44,5.29-10.69,10.8-12.91a60.64,60.64,0,0,1,11.26-3.05,1.52,1.52,0,0,0,.66-2.51A15.4,15.4,0,0,1,1439,432.6a1.51,1.51,0,0,0,1.45-2.51,17.66,17.66,0,0,1-2.69-19.67,18.44,18.44,0,0,1,7-7.35,20.71,20.71,0,0,1,10-2.64c3.39-.14,7.18-1.28,7.91-5.1.61-3.23-1.17-6.48-2.55-9.28-1.51-3.09-2.82-6-2.23-9.55a17,17,0,0,1,4.93-9.07c6.51-6.48,16.59-7.14,25.23-7.77a1.51,1.51,0,0,0,1.3-2.25c-4.1-6-1.52-14,3.26-18.76,5.42-5.4,13.19-8.15,20.33-10.44,7.87-2.53,16.44-4.31,24.69-2.75a23.81,23.81,0,0,1,16,10.35c3.1,4.78,4.72,11,2.43,16.46-1.27,3.05-3.73,5.49-5.61,8.16-1.72,2.46-3.5,5.5-2.77,8.62.81,3.48,4.28,4.82,7.34,5.75s6.36,1.62,9.56,2.36c5.93,1.35,12.49,2.92,16.6,7.77s3.89,11.95,1.3,17.63c-3,6.69-8.48,11.28-14.78,14.81-6.87,3.84-14.32,6.51-21.13,10.46-3.14,1.82-6.2,4.16-5.15,8.23.88,3.38,3.76,5.78,4.92,9,2.06,5.81.08,12.16-3.35,17-4.17,5.9-10.59,9.15-17.49,10.79-7.82,1.86-15.92,1.73-23.91,1.93-3.6.09-7.4.51-10.09,3.18-2.4,2.37-3.31,5.74-4.51,8.79-4.77,12.17-19.41,13-30.64,12.91-3.39,0-6.79-.3-10.19-.23a21,21,0,0,0-11.39,3.24c-3.35,2.18-6.41,4.67-10,6.5a46.2,46.2,0,0,1-22.79,5c-1.93-.07-1.93,2.93,0,3a49.73,49.73,0,0,0,23.92-5.23c3.67-1.84,6.79-4.33,10.2-6.58,3.72-2.46,7.65-3,12-2.95,6.6.14,13.18.52,19.76-.31,6-.77,12.2-2.46,16.79-6.65a20.6,20.6,0,0,0,5.12-7.75c1.2-3,2.06-6.87,5.09-8.64a12,12,0,0,1,5.45-1.26c2-.1,4.1-.09,6.14-.14,4.17-.08,8.34-.22,12.49-.7,7.6-.88,15.43-2.88,21.46-7.83a26.51,26.51,0,0,0,9.58-16.78,17.81,17.81,0,0,0-1.24-9.24,26,26,0,0,0-2.55-4.31c-.93-1.37-2.32-3.18-2-4.94s2.6-2.81,4-3.63c1.78-1,3.61-2,5.46-2.86,3.7-1.8,7.48-3.43,11.18-5.24,6.81-3.34,13.3-7.4,17.67-13.75,3.77-5.46,6.08-12.63,4.22-19.21-4.07-14.47-21.57-13.71-33-18-1.49-.56-3.07-1.54-3.28-3.27a6.69,6.69,0,0,1,1.16-3.88c1.74-3.08,4.31-5.59,6.12-8.62,3.26-5.46,2.8-12.09.3-17.73a26.09,26.09,0,0,0-13.12-13.18c-7.86-3.4-16.71-3.13-24.94-1.37a90.1,90.1,0,0,0-12.34,3.67,67.45,67.45,0,0,0-10.8,4.84c-6.52,3.81-11.76,9.74-12.5,17.52a14.72,14.72,0,0,0,2.39,9.7l1.29-2.26c-8.36.61-17.65,1.26-24.67,6.38-5.83,4.26-10.2,11.85-8.14,19.2,1,3.49,3.25,6.46,4.25,9.93.38,1.37.55,2.89-.52,4-1.35,1.4-3.61,1.23-5.4,1.31a21.91,21.91,0,0,0-18.24,11.1,20.75,20.75,0,0,0,3,23.63l1.46-2.51a18.39,18.39,0,0,0-17.22,30.53l.66-2.51c-7.47,1.46-15.9,3.5-21,9.66a14.65,14.65,0,0,0-.69,17.55,9.47,9.47,0,0,0,8.46,4.26l-.75-2.8c-4.79,3.36-10.52,7.55-11.13,13.88-.48,5,2.75,10.74,8.21,10.81,1.93,0,1.93-3,0-3Z"/><path class="cls-4" d="M370.35,135.71c-3.78-3.13-8.31-6.72-9.39-11.79a9.7,9.7,0,0,1,.52-5.73,6.46,6.46,0,0,1,4.22-3.68c1.72-.58,3.73-1.08,5-2.47,1.59-1.72,1-4-.43-5.55s-2.23-3.11-1.93-5.31A9.57,9.57,0,0,1,370.93,96c4.18-4.37,11.31-3.84,16.82-3.54a1.5,1.5,0,0,0,1.44-1.9,23.16,23.16,0,0,1-1.94-8.08,6.37,6.37,0,0,1,4.16-6.28c6.42-2.8,13.94-3.44,20.84-2.69a1.51,1.51,0,0,0,1.44-1.1c.9-3.4.61-6.9.95-10.37s1.88-6.27,5.2-7.72,7.49-1.89,11.14-2.13a26,26,0,0,1,11.67,1.49,15,15,0,0,1,8.1,7.45,1.5,1.5,0,0,0,2.59,0c3.18-7.51,11.8-10,19.15-11.27,8.49-1.48,20-3,26.26,4.44,2.66,3.17,4,7.8,1.86,11.58a1.52,1.52,0,0,0,1.3,2.26c8.69-.54,18.5-1.27,26.25,3.49,6,3.68,11,11.32,7.6,18.38A12.63,12.63,0,0,1,526.38,97c-1.56.25-1.29,2.48,0,2.89,2.13.68,3,3,3.07,5a8.12,8.12,0,0,1-3.66,6.51,28.32,28.32,0,0,1-8.66,3.9,86.61,86.61,0,0,1-11,2.69,101.57,101.57,0,0,1-11.28,1.24,24.25,24.25,0,0,0-9.75,2.26,45.13,45.13,0,0,0-7.71,5.62,37.69,37.69,0,0,1-8.12,5.27c-6,2.76-12.64,3.72-19.15,3.9-3.31.1-6.63,0-9.94-.22a77.25,77.25,0,0,0-10-.32,21.39,21.39,0,0,0-9.7,2.72c-2.94,1.73-5.4,4.14-8.35,5.86A30.48,30.48,0,0,1,393,148.26c-3.78-.5-7.4-2.13-11.25-2.14-4,0-7,2.32-10.37,4.23-2.49,1.43-6.88,2.78-8.4-.7-1.16-2.64-.1-6,.76-8.57.62-1.83-2.27-2.62-2.89-.8-1.66,4.91-2.65,13.2,4.27,14.46,3.5.63,6.71-1.09,9.57-2.9a18.65,18.65,0,0,1,4.65-2.4,11.56,11.56,0,0,1,5.78.12c3.6.8,7.05,1.81,10.77,1.93a33.3,33.3,0,0,0,10.4-1.34,32.58,32.58,0,0,0,9.64-4.61c3-2.11,5.67-4.69,9.22-5.82s7.27-1.05,10.92-.84,7.13.5,10.72.53c7,.06,14.2-.61,20.83-3a36.18,36.18,0,0,0,9.06-4.82c2.74-2,5.19-4.42,8.05-6.28,3.27-2.13,6.74-2.74,10.58-3a102.08,102.08,0,0,0,12.07-1.4,86.2,86.2,0,0,0,11.63-3,28.51,28.51,0,0,0,8.87-4.3,11.11,11.11,0,0,0,4.44-7.25,9.33,9.33,0,0,0-2-7.28,7,7,0,0,0-3.19-2v2.89a15.25,15.25,0,0,0,12.16-18.56c-2.25-9-11-14.42-19.57-15.91-5.91-1-11.91-.72-17.86-.35l1.29,2.26c2.27-4,1.75-8.67-.44-12.55a17.66,17.66,0,0,0-11.33-8.31c-5.5-1.37-11.23-.81-16.77,0a51.8,51.8,0,0,0-13.37,3.39c-4.51,1.94-8.58,5.09-10.54,9.72h2.59c-3.49-7.61-12.18-10.59-20-10.52A43.26,43.26,0,0,0,420.09,51c-3.65,1.23-6.58,3.58-7.77,7.34-1.37,4.28-.38,8.91-1.52,13.23l1.45-1.1a46.9,46.9,0,0,0-12.41.31c-3.68.57-7.77,1.46-11,3.34-6.39,3.65-4.7,11.52-2.5,17.2l1.45-1.9c-5.67-.31-12.15-.58-17,2.81-3.73,2.58-6.28,7.5-5.17,12.06a8,8,0,0,0,1.33,2.82c.47.64,2.08,1.79,1.78,2.67-.2.59-1.2.92-1.72,1.13-1,.41-2.1.68-3.13,1.08-4.38,1.72-6.41,6.56-6,11,.61,6.41,5.75,10.93,10.41,14.78,1.47,1.23,3.61-.89,2.12-2.12Z"/><path class="cls-4" d="M1107.41,433.46c2.74-2.84,2.62-7.23.68-10.49-2.19-3.7-6.36-5.57-10.15-7.19l-1.15,2.74c3.2.58,5.85-1.58,6.8-4.57,1.08-3.4-.77-6.69-3.4-8.78-3-2.4-6.92-3.7-10.62-4.7a111.75,111.75,0,0,0-12.85-2.38l1,1.85c1.69-6.2-2.19-12.32-7.4-15.46-6.42-3.88-14.49-3.2-21.63-2.54l1.5,1.5c-.44-6.57-5.63-11.31-11.56-13.36-6.92-2.4-15-2.12-22.14-1.11q-2.6.36-5.16.94c-1.94.44-4,1.39-6,1.49-1.65.09-3-1.18-4.38-2s-2.71-1.56-4.11-2.25a50.24,50.24,0,0,0-18.37-5.24,30.71,30.71,0,0,0-19.73,4.87c-1.58,1.09-.08,3.69,1.51,2.59,10-6.82,23-5.14,33.48-.39a86.24,86.24,0,0,1,7.71,4.26,7,7,0,0,0,4.34,1.1,39.21,39.21,0,0,0,5.41-1.34,57.9,57.9,0,0,1,21.34-1.29c6.35.88,14.16,4.34,14.65,11.71a1.52,1.52,0,0,0,1.5,1.5c6.25-.58,13.36-1.38,19.17,1.6,4.49,2.3,8.41,7.33,7,12.6a1.52,1.52,0,0,0,1.05,1.85c6.56.94,13.52,1.8,19.53,4.76,2.23,1.09,5,2.84,5.43,5.51.29,1.81-1.09,4.77-3.29,4.37-1.54-.28-2.84,2-1.16,2.74,3,1.29,6.37,2.64,8.49,5.27,1.71,2.11,2.41,5.58.37,7.7-1.35,1.39.77,3.51,2.12,2.12Z"/><path class="cls-4" d="M960.72,371.79a11.47,11.47,0,0,0-3.6,3.57,8.36,8.36,0,0,0-1.85,5.47c.57,5.07,6.78,7.72,10.6,9.94l-.31-2.36a13.22,13.22,0,0,0-3.81,13.75c1.55,4.83,6.26,8.59,11.45,8.18l-.76-2.79c-2.61,1.36-3.72,4.47-3.55,7.28a11.12,11.12,0,0,0,4.68,8.07,32.78,32.78,0,0,0,10,4.84,43.1,43.1,0,0,0,12,2l-1.5-1.5c-.54,4.36,2.94,7.66,6.62,9.26,4.83,2.11,10.73,2.43,15.92,2a46.19,46.19,0,0,0,8.26-1.42c2.54-.67,5.47-1.66,8-.51a22.37,22.37,0,0,1,3.15,2.05,16.16,16.16,0,0,0,3.43,1.71,17.8,17.8,0,0,0,7,1c5.87-.31,11.41-2.69,16.66-5.14l-2-.54a12,12,0,0,0,8.56,6,66.61,66.61,0,0,0,13.08.88,36.52,36.52,0,0,0,8.92-.75,22.88,22.88,0,0,0,7.52-3.71c1.56-1.1.06-3.7-1.52-2.59a20.62,20.62,0,0,1-6.55,3.34,29.87,29.87,0,0,1-7.61.71,77,77,0,0,1-11.66-.53c-3.31-.5-6.54-1.67-8.15-4.83a1.55,1.55,0,0,0-2.06-.53c-4.29,2-8.8,4-13.54,4.58a16.78,16.78,0,0,1-6.47-.29c-2.35-.61-4.08-2-6.08-3.25-4.5-2.93-9.4-.74-14.14.23a39.39,39.39,0,0,1-16.11-.06c-3.69-.79-8.75-3-8.18-7.56.1-.82-.77-1.48-1.5-1.5A38.71,38.71,0,0,1,977,421.6c-2.23-1.34-4.4-3.24-5-5.89-.43-2,0-4.55,1.94-5.57a1.51,1.51,0,0,0-.75-2.8,8.53,8.53,0,0,1-8.66-6.32,10.26,10.26,0,0,1,3.14-10.49,1.5,1.5,0,0,0-.3-2.35c-2-1.15-4-2.21-5.89-3.53-1.3-.92-2.91-2.31-3.22-4-.24-1.28.66-2.68,1.35-3.68a8.27,8.27,0,0,1,2.61-2.62c1.71-.91.19-3.51-1.51-2.59Z"/><path class="cls-2" d="M1049.58,103.73q39.27-1,78.57-.8,11.19.06,22.38.2a1.5,1.5,0,0,0,0-3q-39.3-.51-78.58.14-11.19.18-22.37.46c-1.93,0-1.93,3,0,3Z"/><path class="cls-3" d="M140.31,476.08q49.62-2.29,99.32-2.16,14,0,28,.28c1.93,0,1.93-3,0-3q-49.68-.82-99.34.78-14,.45-27.94,1.1c-1.92.09-1.93,3.09,0,3Z"/><path class="cls-3" d="M168.48,485.26q28.1.63,56.19,0c5.3-.12,10.6-.29,15.91-.48,1.92-.07,1.93-3.07,0-3q-28.08,1-56.19.77-7.95-.08-15.91-.25c-1.93,0-1.93,3,0,3Z"/><path class="cls-3" d="M1289,445.66q39.19.79,78.4-.57,11.09-.39,22.15-.95c1.92-.1,1.93-3.1,0-3q-39.16,2-78.4,1.8-11.07-.06-22.15-.28c-1.93,0-1.93,3,0,3Z"/><path class="cls-3" d="M1324.52,456.62a344.8,344.8,0,0,1,50.71-1.07c1.93.1,1.93-2.9,0-3a344.8,344.8,0,0,0-50.71,1.07c-1.91.18-1.93,3.19,0,3Z"/><path class="cls-4" d="M720.45,142.48c-1.89-3.23-5-5.23-8.35-6.73s-7.17-2.54-10.19-4.83c-2.71-2.06-5.8-5.8-4-9.38.88-1.8,2.66-2.91,4.36-3.82a44.24,44.24,0,0,1,6.13-2.64,49.22,49.22,0,0,1,15.49-2.7,1.51,1.51,0,0,0,1.3-2.25c-2.92-5.59-9.46-8.76-11.35-14.91-.87-2.8-.54-5.72,2.06-7.42a34.41,34.41,0,0,1,4.67-2.32c1.82-.83,3.66-1.65,5.54-2.37a38.23,38.23,0,0,1,10.61-2.69,44.91,44.91,0,0,1,11.1.72c7.59,1.27,14.92,3,22.67,2.32,7.45-.64,14.85-2.63,22.36-2.22,5.36.29,11.11,1.92,15,5.76,2.31,2.27,3.14,5,4.31,7.91a11,11,0,0,0,5.29,6,60.39,60.39,0,0,0,7.05,2.66c2.23.82,4.62,2,5.45,4.44,1,2.91-.47,6.23-2.58,8.26-2.62,2.53-6.43,3.51-9.9,4.17-8.34,1.6-17.3,2.92-25.69,1a1.51,1.51,0,0,0-1.89,1.45c.52,5.49-2.53,10.44-6.81,13.67-5.12,3.86-11.64,4.85-17.9,4.87-1.66,0-3.33-.05-5-.15-.83,0-1.66-.1-2.49-.16a18.17,18.17,0,0,0-2.93-.23c-1.21.13-2.2,1.47-3.13,2.17a32,32,0,0,1-3.49,2.26,33.47,33.47,0,0,1-15.55,4.14A32.12,32.12,0,0,1,715,144.82c-1.65-1-3.16,1.58-1.52,2.59,13,8.06,30.94,6.35,42.29-3.92l-1.06.44c8.92.72,18.66,1.45,26.87-2.88,6.56-3.45,12-10.39,11.25-18.12l-1.9,1.44c8.22,1.87,16.62.75,24.84-.59,6.63-1.08,14-3.06,16.68-10a9.38,9.38,0,0,0-.71-8.73c-1.6-2.29-4.09-3.53-6.65-4.46s-5.25-1.51-7.47-3.06c-2.78-1.94-3.12-5.53-4.53-8.37-2.75-5.51-8.54-8.76-14.34-10.12-7.26-1.71-14.61-.49-21.86.58a67.93,67.93,0,0,1-12.65,1A86.16,86.16,0,0,1,752,78.86a72.56,72.56,0,0,0-12.1-1.54,36.42,36.42,0,0,0-11.84,1.9,98.31,98.31,0,0,0-10.93,4.54c-3.12,1.45-6,3.33-6.64,7-1.25,7.25,4.73,12.06,9.08,16.79a19.49,19.49,0,0,1,3,4.12l1.29-2.26a51.68,51.68,0,0,0-15,2.38,53.56,53.56,0,0,0-7,2.82,16.26,16.26,0,0,0-5.35,3.74c-2.89,3.35-2.49,7.82,0,11.27s6.28,5.56,10.27,7.16,8.79,3.23,11.13,7.24a1.5,1.5,0,0,0,2.6-1.51Z"/><path class="cls-3" d="M205.46,149.11c1.59,17.1.13,34.23-.15,51.35-.09,5-.06,10,.15,14.94.08,1.92,3.09,1.93,3,0-.73-17.19.93-34.36.73-51.55-.05-4.92-.27-9.84-.73-14.74-.17-1.91-3.18-1.93-3,0Z"/><path class="cls-3" d="M215.71,152.56v45.89a1.5,1.5,0,0,0,3,0V152.56a1.5,1.5,0,0,0-3,0Z"/><path class="cls-3" d="M205.46,149.11c1.59,17.1.13,34.23-.15,51.35-.09,5-.06,10,.15,14.94.08,1.92,3.09,1.93,3,0-.73-17.19.93-34.36.73-51.55-.05-4.92-.27-9.84-.73-14.74-.17-1.91-3.18-1.93-3,0Z"/><path class="cls-3" d="M215.71,152.56v45.89a1.5,1.5,0,0,0,3,0V152.56a1.5,1.5,0,0,0-3,0Z"/><path class="cls-3" d="M603,103.28l52.73,1c1.93,0,1.93-3,0-3l-52.73-1c-1.93,0-1.93,3,0,3Z"/><path class="cls-3" d="M1126.64,418.55l52.73,1c1.93,0,1.93-3,0-3l-52.73-1c-1.93,0-1.93,3,0,3Z"/><path class="cls-3" d="M604.39,93.32l70.81,2.54,19.95.71c1.93.07,1.93-2.93,0-3L624.34,91l-20-.71c-1.93-.07-1.93,2.93,0,3Z"/><path class="cls-3" d="M1065.77,90.19l70.81,2.54,20,.72c1.93.07,1.93-2.93,0-3l-70.82-2.54-19.94-.72c-1.93-.07-1.93,2.93,0,3Z"/><path class="cls-3" d="M1084.43,113.58q28.1.63,56.19,0c5.31-.12,10.61-.29,15.91-.48,1.92-.07,1.93-3.07,0-3q-28.08,1-56.18.78-8-.07-15.92-.26c-1.93,0-1.93,3,0,3Z"/><path class="cls-2" d="M1427.74,345.59q-1-39.29-.79-78.57,0-11.19.19-22.38c0-1.93-3-1.93-3,0q-.5,39.28.14,78.58.18,11.17.46,22.37c0,1.92,3,1.93,3,0Z"/><path class="cls-3" d="M1436.85,341q.62-28.08,0-56.19-.19-7.95-.49-15.9c-.07-1.93-3.07-1.94-3,0q1,28.08.78,56.18-.07,8-.25,15.91c0,1.93,3,1.93,3,0Z"/><path class="cls-3" d="M570.62,417.83l96.21-2.21,26.92-.62c1.93,0,1.94-3,0-3l-96.21,2.21-26.92.62c-1.92,0-1.93,3,0,3Z"/><path class="cls-3" d="M567.05,429.56l50.72-.84,14.42-.24c1.93,0,1.93-3,0-3l-50.72.84-14.42.24c-1.93,0-1.94,3,0,3Z"/></g><g id="Logo"><rect class="cls-5" x="256.87" y="123.56" width="1149.89" height="256.81"/><rect class="cls-6" x="240.66" y="106.42" width="1071.89" height="249.38"/><path class="cls-7" d="M294.79,500.29c-18.51,0-31.18-14.66-31.18-34.26,0-19,14.45-34,31.18-34,8,0,14.16,3.06,18.12,7.82l2-7.53h7.52v25.35H314.3c-4.06-11.78-10.1-18.42-18.42-18.42-10.1,0-17.92,7.63-17.92,26.24,0,17.12,6.64,27,18.81,27a12.73,12.73,0,0,0,11.49-6.33c1.78-2.58,2.57-7.33,2.57-11V473H299.25v-7.42h32.37V473H323.5v26.43h-7.42l-3.27-9.2A20,20,0,0,1,294.79,500.29Z"/><path class="cls-7" d="M333,491.38h7.92V460.19H333v-7.33h19.5v38.52h7.92v7.32H333Zm5.54-54A7.22,7.22,0,0,1,346,429.9c4.46,0,7.43,2.87,7.43,7.22a7.15,7.15,0,0,1-7.43,7.53C341.59,444.65,338.52,441.68,338.52,437.42Z"/><path class="cls-7" d="M364.28,460.19H358v-7.33h26.14v7.33h-7.43l10.2,29.3h.4l10.49-29.3H391.7v-7.33h19.6v7.33h-5.74l-15.34,39H379.13Z"/><path class="cls-7" d="M423.84,476.92c.39,11.19,5.05,15.74,13.26,15.74,5.45,0,9.41-2.37,11.88-8.21h5.94c-2.27,9.7-9.11,15.24-20.39,15.24-14.45,0-23-9.9-23-23.36,0-13.86,9.8-24.26,23.17-24.26,14.45,0,21,11.59,20.49,24.85Zm.1-5.25h19.8c-.6-8.91-3.37-13.76-9.61-13.76C428.49,457.91,424.73,461.58,423.94,471.67Z"/><path class="cls-7" d="M518,476.72H495l-5.15,14.56h8.22v7.42H474.23v-7.42h7.12l21.88-58.12h12.68L537,491.28h8.52v7.42H513.33v-7.42H523Zm-20.59-6.63h18.32L507,444.45h-.4Z"/><path class="cls-7" d="M547.5,491.38h7.92V438.21H547.5v-7.72h19.4v60.89h7.92v7.32H547.5Z"/><path class="cls-7" d="M577.94,491.38h7.92V438.21h-7.92v-7.72h19.4v60.89h7.92v7.32H577.94Z"/><path class="cls-7" d="M644.56,441v12.38h14.85v6.83H644.56v25.34c0,4.36,1.29,6.64,5.15,6.64,2.87,0,4.75-2.58,6.63-8.22l5,1.78c-2.37,9.8-7.52,14-15,14-8.91,0-13.36-4.95-13.36-13.76V460.19h-8.61v-6.83h8.81V442.27Z"/><path class="cls-7" d="M663.27,491.38h7V438.21h-7v-7.72h18.52v33.36c4.45-7.92,9.5-11.68,16.43-11.68,8.41,0,13,5.94,13,15.05v24.16h7v7.32H693.57v-7.32h6.13V470c0-3.27-.79-5.84-2.37-7.42a6.41,6.41,0,0,0-5-1.88c-5.25,0-10.59,5-10.59,13.16v17.53h6v7.32H663.27Z"/><path class="cls-7" d="M732.12,476.92c.39,11.19,5,15.74,13.26,15.74,5.45,0,9.41-2.37,11.88-8.21h5.94c-2.27,9.7-9.11,15.24-20.39,15.24-14.46,0-23-9.9-23-23.36,0-13.86,9.8-24.26,23.17-24.26,14.45,0,21,11.59,20.49,24.85Zm.1-5.25H752c-.59-8.91-3.36-13.76-9.6-13.76C736.77,457.91,733,461.58,732.22,471.67Z"/><path class="cls-7" d="M788.25,476.23h7.12c6,12.27,10.89,17,20.7,17,7.42,0,11.78-3.77,11.78-9.9,0-7.13-7.63-9-16.93-11.49-10.5-2.77-21.88-6.33-21.88-20.19,0-10.79,9-19.7,21.58-19.7,6.14,0,12.67,2.57,16.24,7l2.07-6.73h7.43V455h-7.13c-5.15-12-10.59-16-18.41-16-6.44,0-10.2,3.87-10.2,9.21,0,7.82,8,9.6,17.43,12,10.29,2.48,21.38,5.74,21.38,19.31,0,11.88-9.6,20.79-22.87,20.79-7.62,0-14.65-2.88-18.51-7.43L795.77,500h-7.52Z"/><path class="cls-7" d="M841.81,506.92h7V460.19h-7v-7.33h18v10.7c3.17-7.72,8.62-11.49,15.35-11.49a16,16,0,0,1,11.68,4.75c4.16,4.16,6,10.7,6,18.22,0,7.82-2.38,14.45-6.54,18.61a16.4,16.4,0,0,1-11.68,5.05,15.94,15.94,0,0,1-14.35-8.12v16.34h9.11v7.32H841.81Zm38.61-32c0-10.39-3.87-15.44-9.71-15.44s-10.89,7-10.89,16.63c0,8.71,3.57,15.54,10.89,15.54C877.05,491.67,880.42,485.83,880.42,474.94Z"/><path class="cls-7" d="M897.32,487.42a11.21,11.21,0,0,1,3.37-8.22c3.37-3.37,8.22-4.85,17.92-6.24,5.64-.79,6.43-.89,6.43-2.37v-4.46c0-5.84-2.77-8.12-8.71-8.12a13.32,13.32,0,0,0-6.93,1.69,5.61,5.61,0,0,1,2.68,4.95c0,3.16-2.48,5.74-6.34,5.74a6.21,6.21,0,0,1-6.63-6.34c0-7.72,9.3-12,20-12,11.88,0,17.43,5.25,17.43,14.85V489.1c0,2.18.79,3.07,2.77,3.07,1.29,0,2.47-1.29,3.37-4.06l4.05,1.88c-2.17,6.53-5.64,9.21-11.08,9.21-4.75,0-8.91-2.58-9.21-8.72h-.5c-2.77,5.85-8.71,8.91-14.94,8.91C902.67,499.39,897.32,494.54,897.32,487.42ZM925,482.56v-6.43a19,19,0,0,1-4.45,1c-8.51,1.39-11.09,3-11.09,8.22,0,4,2.08,6.83,6.83,6.83C920.69,492.17,925,488.21,925,482.56Z"/><path class="cls-7" d="M947.23,476.53c0-14.36,10.2-24.46,24.35-24.46,11.39,0,18.52,7.33,18.52,13.66,0,4.86-2.48,8.32-7,8.32a6.34,6.34,0,0,1-6.73-6.53,7,7,0,0,1,4-6c-1.38-2.08-4.15-3.67-8.51-3.67-6.73,0-12.18,6.24-12.18,17.63,0,10.59,4.46,17,13.07,17,5.45,0,9.6-3.16,11.68-9.2h6c-2.18,10.1-9.3,16.43-20.1,16.43C955.74,499.69,947.23,490,947.23,476.53Z"/><path class="cls-7" d="M1006.47,476.92c.4,11.19,5,15.74,13.27,15.74,5.44,0,9.4-2.37,11.88-8.21h5.94c-2.28,9.7-9.11,15.24-20.4,15.24-14.45,0-23-9.9-23-23.36,0-13.86,9.81-24.26,23.17-24.26,14.45,0,21,11.59,20.49,24.85Zm.1-5.25h19.8c-.59-8.91-3.37-13.76-9.6-13.76C1011.12,457.91,1007.36,461.58,1006.57,471.67Z"/><path class="cls-7" d="M1078.44,441v12.38h14.85v6.83h-14.85v25.34c0,4.36,1.29,6.64,5.15,6.64,2.87,0,4.75-2.58,6.63-8.22l5,1.78c-2.38,9.8-7.52,14-15,14-8.91,0-13.36-4.95-13.36-13.76V460.19h-8.61v-6.83h8.81V442.27Z"/><path class="cls-7" d="M1097.71,476c0-14.06,9.8-24,23.66-24,14.35,0,23.66,9.51,23.66,23.56s-9.8,24.06-23.66,24.06C1106.91,499.69,1097.71,490.09,1097.71,476Zm34.65-.2c0-12.57-4.16-17.82-11.39-17.82s-10.59,5.35-10.59,17.82,4.06,17.92,11.38,17.92C1128.79,493.75,1132.36,488.31,1132.36,475.83Z"/><path class="cls-7" d="M1168.49,466.23c0-19.21,14.26-34.25,31.09-34.25,8,0,14.35,3,18.31,7.72l1.88-7.43h7.53V458h-7.53c-4.26-12-10.49-18.81-19-18.81-10.29,0-17.92,7.33-17.92,26.24,0,17.72,7.13,26.93,19.61,26.93,10.89,0,17.12-8.62,18.81-19.71h8.11c-1.68,17.23-12.57,27.63-28.81,27.63C1181.16,500.29,1168.49,485.73,1168.49,466.23Z"/><path class="cls-7" d="M1233.68,487.42a11.21,11.21,0,0,1,3.37-8.22c3.36-3.37,8.21-4.85,17.91-6.24,5.65-.79,6.44-.89,6.44-2.37v-4.46c0-5.84-2.77-8.12-8.71-8.12a13.29,13.29,0,0,0-6.93,1.69,5.63,5.63,0,0,1,2.67,4.95c0,3.16-2.47,5.74-6.33,5.74a6.22,6.22,0,0,1-6.64-6.34c0-7.72,9.31-12,20-12,11.88,0,17.42,5.25,17.42,14.85V489.1c0,2.18.8,3.07,2.78,3.07,1.28,0,2.47-1.29,3.36-4.06l4.06,1.88c-2.18,6.53-5.64,9.21-11.09,9.21-4.75,0-8.91-2.58-9.2-8.72h-.5c-2.77,5.85-8.71,8.91-15,8.91C1239,499.39,1233.68,494.54,1233.68,487.42Zm27.72-4.86v-6.43a19,19,0,0,1-4.46,1c-8.51,1.39-11.08,3-11.08,8.22,0,4,2.08,6.83,6.83,6.83C1257,492.17,1261.4,488.21,1261.4,482.56Z"/><path class="cls-7" d="M1285.05,491.38H1292V460.19h-6.93v-7.33h18v11.19c2.47-8,8.22-11.88,13.86-11.88a8.11,8.11,0,0,1,8.51,8.32c0,4.06-2.87,7.32-6.73,7.32s-6.83-2.27-6.83-6.33a5.77,5.77,0,0,1,.2-1.29c-3.67,0-6.83,4.16-8.52,9.9v21.29h8.62v7.32h-27.13Z"/><path class="cls-7" d="M1328.38,482.46h6.73c3.07,6.84,8.81,11.49,14.75,11.49,4.86,0,6.93-2.28,6.93-5.54,0-3.77-2.77-5.55-11.88-7.92-11-3-15.84-6.74-15.84-14.36s6.44-14.06,16.24-14.06c5.15,0,9.5,1.88,12,5.35l1.19-5.35h6.63v15.74h-6.63c-3.37-6.23-6.93-10.19-12.68-10.19-3.56,0-6.43,1.88-6.43,5.24,0,3.67,3.17,5.45,11.48,7.63,10.4,2.77,16.14,6.13,16.14,14.45,0,7.33-6.14,14.75-16.83,14.75a17.74,17.74,0,0,1-14-6.24l-1.28,6.14h-6.54Z"/><rect class="cls-8" x="642.42" y="106.42" width="740.14" height="249.38"/><rect class="cls-9" x="240.66" y="106.42" width="395.65" height="249.38"/><path class="cls-1" d="M297,264.11h13.69V204.17H297V187.69h40.89v24.42c6.55-15.68,16.67-26.4,33.74-26.4,20,0,28.38,13.5,28.38,32.75v45.65h13.3v16.48h-53V264.11h10.52V222.43c0-6.15-1.19-11.12-4.16-14.09a13,13,0,0,0-9.13-3.18c-9.33,0-17.87,9.33-17.87,22.63v36.32H350v16.48H297Z"/><path class="cls-1" d="M447.87,293.49a17.36,17.36,0,0,1-1.58,7.34c8.13-1,13.1-4.76,18.85-18.66l-37.31-78H415.52V187.69h58.16v16.48H459.59l20.84,48.63,18.65-48.63H487.37V187.69h40.69v16.48H516.75L485,278c-9.53,22.43-20.24,37.12-41.68,37.12-16.87,0-25.61-8.73-25.61-20.64,0-9.33,6.16-16.67,15.29-16.67C443.11,277.81,447.87,285.75,447.87,293.49Z"/><path class="cls-1" d="M528.26,235.73c0-30,21-50.22,51.21-50.22,26.79,0,40.49,16.08,40.49,30.17,0,9.92-5.56,17.07-15.88,17.07-9.73,0-14.89-6.55-14.89-14.09a13.41,13.41,0,0,1,8.34-12.51c-2.78-3.57-7.54-6.35-15.28-6.35-13.1,0-22.83,12.31-22.83,33.74,0,19.46,7.94,32.16,23.42,32.16,10.72,0,18.06-6.35,21.83-17.07h15.49c-4.37,20.05-18.26,33.94-41.69,33.94C546.92,282.57,528.26,263.71,528.26,235.73Z"/><polygon class="cls-7" points="724.74 231.48 642.9 102.73 642.9 360.22 724.74 231.48"/><path class="cls-7" d="M767.68,196.23l-20.18,5-5.3-20.84,33.25-9.93h17.37V287H767.68Z"/><path class="cls-7" d="M816.47,229.47v-.33c0-33.57,20.84-59.87,51.6-59.87,30.6,0,51.28,26,51.28,59.54v.33c0,33.58-20.68,59.88-51.61,59.88S816.47,263.05,816.47,229.47Zm76.75,0v-.33c0-21-10.26-36.88-25.48-36.88s-25.14,15.38-25.14,36.55v.33c0,21.18,10.09,36.89,25.47,36.89S893.22,250.48,893.22,229.47Z"/><path class="cls-7" d="M936.71,229.47v-.33c0-33.57,20.84-59.87,51.61-59.87,30.6,0,51.28,26,51.28,59.54v.33c0,33.58-20.68,59.88-51.61,59.88S936.71,263.05,936.71,229.47Zm76.75,0v-.33c0-21-10.25-36.88-25.47-36.88s-25.14,15.38-25.14,36.55v.33c0,21.18,10.09,36.89,25.47,36.89S1013.46,250.48,1013.46,229.47Z"/><path class="cls-7" d="M1089.22,217.21l14.2-22.07h22.36L1100.33,232l26.57,38.53H1104L1088.8,247l-15.18,23.48h-22.36l26.43-38.25-25.44-37.11h22.91Z"/><path class="cls-7" d="M1146.25,266.86l38.54-31.6c14.39-11.91,20-18.19,20-27.78,0-9.76-6.45-15.06-15.54-15.06-8.93,0-15,5-23.66,15.55l-17.86-14.39c11.41-15.55,22.5-24,43.17-24,24,0,39.86,14.06,39.86,35.73v.33c0,19.35-9.92,28.94-30.43,44.82L1181.48,265h50.45v22h-85.68Z"/><path class="cls-7" d="M1247.81,273.3l15.38-18.36c8.77,7.94,17.37,12.57,27.62,12.57,11.91,0,19.35-5.79,19.35-16v-.33c0-9.93-8.43-15.72-20.51-15.72a49.67,49.67,0,0,0-19.35,4.31L1255.58,230l3.31-57.07H1330v22.33h-49.29l-1.32,20a56.55,56.55,0,0,1,15.22-2c22.49,0,40.52,10.92,40.52,37.05v.33c0,24.48-17.37,40-44,40C1272.62,290.67,1259.05,284.05,1247.81,273.3Z"/></g><g id="Smog_TOP" data-name="Smog TOP"><path class="cls-2" d="M1379.7,227c1.48,1.92,4.88,2.6,6.83,3.64,5.82.83,12.09-1.52,14.91-6.83a15.33,15.33,0,0,0,6.33,2.24c10.21,2,19.8-4.22,20.14-14.27l.47-.88c3.43,3,6.83,3.64,11.21,4.83,11.65,1.66,20.77-3.7,24.51-13.07,3.91,2.08,7.81,4.16,12.66,4.47a32,32,0,0,0,36-20.57c17.91-.68,32.26-13.49,33.94-30.77,2.15-18.17-10.71-36.38-28.72-42.56-6-12.28-17.75-20.81-31.35-23.51-20.87-3.17-39.59,8.45-43.19,27h0c-19.43-3.53-37.17,8.61-39.8,27.65a21.76,21.76,0,0,0,1.11,9.68c-13.56-.41-25.55,8-26.32,21.2a14.64,14.64,0,0,0,1.61,11.08c-7.27-.46-13.5,4.17-14.37,10.52-.91,4.06,1.08,7.39,4,11.24a10.9,10.9,0,0,0-9.56,8.54c-.88,6.35,3.57,12.12,10.37,13.47C1373,232.53,1377.81,230.55,1379.7,227Z"/><path class="cls-3" d="M128.91,221.17a43.86,43.86,0,0,0-47.2,37A43.68,43.68,0,0,0,63.54,333.7a41.55,41.55,0,0,0-3.81,13.58,43.73,43.73,0,0,0,50.17,47.37,43.72,43.72,0,0,0,68.28,32.49A46.84,46.84,0,0,0,204.29,438a48,48,0,0,0,19.57-2.37,31.48,31.48,0,1,0,31.9-47.43,47.4,47.4,0,0,0-22.41-37.63c.14-1.54.54-3,.68-4.59a43.61,43.61,0,0,0-29.2-42.36,43.88,43.88,0,0,0-33.45-66.76,39,39,0,0,0-12.47.94,42,42,0,0,0-30-16.65Z"/></g><g id="Smog_outline_on_TOP" data-name="Smog outline on TOP"><path class="cls-4" d="M1359.91,233.84c-.86-.48-1-1.7-1-2.58-.13-1.38-.06-2.77-.18-4.15a15.69,15.69,0,0,0-1.12-4c-.58-1.69-1-3.73.39-5.16,2.23-2.4,6-1.38,8.77-2.49,4.43-1.81.79-7.34,2.08-10.51,1.86-4.59,8.23-3.38,11.91-2.59a1.53,1.53,0,0,0,1.85-1.05l.13-.79a1.53,1.53,0,0,0-1-1.84,8.86,8.86,0,0,1-6.9-7.85,8.76,8.76,0,0,1,6-8.58c4-1.26,8.5.39,11.85-2.79,2.67-2.54,2.6-6.51,2.47-9.91-.15-3.9-.12-7.47,2.37-10.71a16.93,16.93,0,0,1,10.52-6,29.28,29.28,0,0,1,7.18-.31c1.22.08,2.43.22,3.64.39a21.47,21.47,0,0,0,3.65.48c4.34-.12,5.08-4.38,5.64-7.8.73-4.42,3.6-7.66,7.54-9.64,5-2.51,10.8-2.51,16.22-2.58.87,0,1.83-1,1.44-1.9a19.07,19.07,0,0,1,2.74-18.85c5.15-6.53,13.91-7.53,21.67-8.1,8.31-.61,17.08-.19,24.77,3.35.87.4,1.72,1,2.62,1.32s2.44-.24,3.46-.46c2.2-.46,4.41-.89,6.63-1.21a36.39,36.39,0,0,1,13.76.26c7.45,1.83,15.27,9,13.36,17.36a1.51,1.51,0,0,0,1.45,1.9,23.77,23.77,0,0,1,22.68,11.9c2.5,4.49,3.43,10,0,14.24-3.16,3.95-8.08,5.69-12.9,6.55-2.89.52-5.82.75-8.72,1.13-2.28.29-5.62.28-7,2.53-1.16,2-.39,4.7-.14,6.82.27,2.35.53,4.7.61,7.06.16,4.25-.2,9-3.16,12.35-3.18,3.58-8,4.26-12.53,4.42-2.41.09-4.83,0-7.24.15s-5,.15-7.16,1.13c-4.6,2-3.51,7.7-4.84,11.69-2.59,7.78-10.67,13-18.59,13.88a21.55,21.55,0,0,1-6.16-.17c-2.72-.5-5.31-1.5-8-2.13a17.66,17.66,0,0,0-8-.27,24.06,24.06,0,0,0-6.91,3.07c-2.23,1.34-4.39,2.79-6.74,3.91a33.61,33.61,0,0,1-7.51,2.49,48.85,48.85,0,0,1-16,.41,73,73,0,0,1-8-1.48c-2.7-.64-5.35-1.54-8.08-2.08a14,14,0,0,0-8.07.36,13.88,13.88,0,0,0-5.14,3.9c-2.95,3.38-5.19,7.48-9.66,9s-9.54.69-14-.61c-2.38-.69-4.71-1.55-7-2.47-1.8-.71-2.58,2.19-.8,2.89,8.73,3.48,20.38,7.06,28.21-.27,3.17-3,5.16-7.73,9.27-9.58,2.74-1.23,5.87-.56,8.64.18s5.41,1.5,8.17,2.07c10.69,2.22,22.3,2.45,32.26-2.61,4.64-2.35,9-6.5,14.46-6.57,2.92,0,5.72.94,8.49,1.74a29.72,29.72,0,0,0,7.35,1.32,26.43,26.43,0,0,0,22.29-11.14,20.67,20.67,0,0,0,2.68-5.68c.65-2.21.56-4.53,1.14-6.74.71-2.7,3.29-2.94,5.71-3.14s4.93-.18,7.4-.22c4.7-.08,9.8-.33,13.84-3s6-6.92,6.57-11.57-.13-9.57-.66-14.29c-.1-.86-.58-2.57,0-3.31.66-.9,3.13-.89,4.12-1,2.87-.37,5.76-.62,8.62-1.07,5.22-.81,10.42-2.52,14.27-6.31a13.93,13.93,0,0,0,3.63-14c-2.55-9.33-11.15-16.5-20.56-18.17a24.68,24.68,0,0,0-6.81-.3l1.45,1.9c1.43-6.28-1.61-12.48-6.42-16.47-5.65-4.69-12.93-5.88-20.09-5.33a98.35,98.35,0,0,0-13.42,2.23l1.15.15c-9.89-5.47-21.54-5.87-32.53-4.64-5.49.61-11.3,1.54-15.91,4.81a21.74,21.74,0,0,0-7.82,10.55,21.21,21.21,0,0,0,.24,15l1.45-1.9c-9.07.13-20.32.91-25.18,10a17.83,17.83,0,0,0-1.68,5.77c-.21,1.33-.39,3.65-1.89,4.2-1,.38-2.44-.11-3.5-.27-1.32-.2-2.65-.36-4-.46a33.15,33.15,0,0,0-7.77.27,20.17,20.17,0,0,0-11.7,5.94,15.69,15.69,0,0,0-4.13,11.34c0,3.13,1.11,8.13-1.72,10.42-1.79,1.44-4.37,1.17-6.52,1.26a12.92,12.92,0,0,0-6.06,1.57,11.69,11.69,0,0,0-5.75,11.74,11.87,11.87,0,0,0,9,9.47l-1-1.85-.13.79,1.84-1c-4.45-1-9.4-1.73-13.22,1.36a7.24,7.24,0,0,0-2.73,5,14.27,14.27,0,0,0,.26,3.45c.13.84.61,2.73-.12,3.37-.53.45-2,.36-2.64.44a26.19,26.19,0,0,0-2.92.5,8.56,8.56,0,0,0-4.52,2.49,7,7,0,0,0-1.45,5.87c.27,1.75,1.32,3.28,1.5,5,.33,3.07-.54,7.62,2.71,9.44,1.69.94,3.21-1.65,1.52-2.59Z"/><path class="cls-4" d="M278.07,428.28C263.18,433.63,247,439.49,231,435.7a35.55,35.55,0,0,1-17.06-9,26.35,26.35,0,0,1-3.17-3.82c-.93-1.36-1.65-2.86-2.62-4.2-2.29-3.13-5.6-3.91-9.32-3.45-8.49,1.06-16.8,3.44-25.43,2.45a28.06,28.06,0,0,1-10-3,21.21,21.21,0,0,1-7.45-6.89c-2-2.81-4.11-5.61-7.7-6.18s-7.67.76-11.32,1.35c-7.63,1.21-15.64,1.69-23.18-.24-6.51-1.67-12.22-5.17-16-10.83-3.19-4.81-5-10.93-3.28-16.61a15.49,15.49,0,0,1,1.78-3.85,1.52,1.52,0,0,0-1.3-2.26c-13-1-26.88-2.09-37.67-10.13-8.55-6.38-14.14-17.23-9.66-27.68,2.19-5.1,6.44-9.2,12-10.15a1.51,1.51,0,0,0,.66-2.51c-9.06-7.62-18.67-16.59-21.7-28.48a28,28,0,0,1,32.17-34.56,1.53,1.53,0,0,0,1.9-1.44c2-14.76,11-28.3,23.43-36.34a50.5,50.5,0,0,1,43.5-5A51.44,51.44,0,0,1,159,224.41c2.62,2.52,4.94,6.68,8.88,7.12,2.17.24,4.4-.53,6.49-1s4.46-1.12,6.7-1.64c8.71-2,18.18-3.66,26.8-.36,6.81,2.62,11.87,8.4,14.64,15,6.61,15.78.11,32.55-9,45.81q-1.89,2.73-3.92,5.34a1.52,1.52,0,0,0,.66,2.51c8.81,2,18.29,4.17,25,10.65a20.56,20.56,0,0,1,6,10.1c1,4.38,0,8.83-1.4,13-1.58,4.89-3.65,9.63-4.42,14.74a1.52,1.52,0,0,0,1.45,1.9c13,.17,24.84,9.6,29.09,21.67A29,29,0,0,1,267.61,380a1.52,1.52,0,0,0,1.5,1.5c7.5.45,15.22,3.69,19.9,9.74a18.11,18.11,0,0,1,2,19,14.19,14.19,0,0,1-7.74,7.28l1.16,2.74,1.23-.61a5.16,5.16,0,0,1,.78-.39c.53-.16-.14.12-.09.13,1.09.38,2.31.26,3.42.71a4.05,4.05,0,0,1,2.19,1.9c1,2-1.19,3.3-2.82,3.85a15.6,15.6,0,0,1-6.8.36c-1.92-.21-1.9,2.79,0,3,3.17.35,6.4.3,9.31-1.18,2.49-1.27,4.27-3.81,3.29-6.66s-4-4.32-6.89-4.77a5.14,5.14,0,0,0-3.2.11c-.65.31-1.29.64-1.94,1-1.5.75-.45,3.32,1.16,2.74,7.4-2.67,11.62-10.24,11.77-17.88.17-8.54-5.21-15.87-12.46-19.95a33,33,0,0,0-14.25-4.1l1.5,1.5c.51-14.29-9.18-27.64-22.18-33a31.47,31.47,0,0,0-11.57-2.37l1.44,1.9c1.43-9.47,7.55-18.15,6.07-28-1.37-9-9-15.73-17-19.25A91.75,91.75,0,0,0,211,294.28l.66,2.51c10.53-13.54,19.64-30.52,15.6-48.2-1.67-7.29-5.5-14.31-11.45-19-7.13-5.58-16.23-6.69-25-5.62a123.66,123.66,0,0,0-14.36,2.87,70.08,70.08,0,0,1-6.84,1.63c-2.42.34-3.77-1.07-5.24-2.77a53.74,53.74,0,0,0-19.1-14c-14.74-6.4-31.88-6.45-46.26,1a55.81,55.81,0,0,0-28.21,35.74,57.69,57.69,0,0,0-1,5.7l1.9-1.45a31,31,0,0,0-36.58,34.51,38.63,38.63,0,0,0,7.42,17.44c4.45,6.1,10,11.26,15.77,16.11l.66-2.51C47.65,320.19,41.36,333,43.5,343.6c2.58,12.77,14.48,21.19,26.26,24.74,8.19,2.47,16.79,3.13,25.27,3.78l-1.29-2.25c-7,11.09,0,25.78,10.28,32,6.62,4,14.69,5.2,22.32,5a87.45,87.45,0,0,0,11.86-1.2c2-.33,4.06-.79,6.11-1.11a7.79,7.79,0,0,1,5.65.73,13.6,13.6,0,0,1,3.33,3.75,29,29,0,0,0,3.34,4.22,24.92,24.92,0,0,0,8.87,5.5c7.83,2.93,16.31,2.2,24.39.89,2.23-.36,4.45-.76,6.67-1.14a16.9,16.9,0,0,1,5.79-.43c2,.34,3.08,1.69,4.06,3.3a45.71,45.71,0,0,0,2.76,4.27A35.39,35.39,0,0,0,225.5,437.2c15.56,5.62,32.15,1.38,47.2-3.84,2.06-.71,4.11-1.45,6.17-2.19,1.8-.65,1-3.55-.8-2.89Z"/></g><g id="Car"><path class="cls-5" d="M1409.59,100.89c6.14-.28,8.27.06,11.27-1.42a7.43,7.43,0,0,0,3-2.72l1.56-2.45a13.6,13.6,0,0,0,2-9l-3-23.63a13.72,13.72,0,0,0-2.37-5.52c-2.49-3-6.87-3.25-10.74-3.3-2.84,0-4.87.2-7.7.16l-1.9,0c-8.57-9-19.9-15.12-31.81-18.76s-24.41-4.9-36.85-5.26a75.47,75.47,0,0,0-15.18.72c-14.84,2.59-27.2,12.47-38.86,22l-.94.31c-14.21-.55-28.4,1.34-42.49,3.3-5.69.8-11.89,1.87-15.69,6.18-3.27,3.7-4,8.94-4.43,13.85-.32,3.51-.54,7.19.94,10.38,2,4.31,6.71,6.71,11.31,7.89a75.26,75.26,0,0,0,13,2.19Z"/><path class="cls-2" d="M1412.69,108.35c.59-10.32-3.93-15.34-3.93-15.34-5-7.34-10.86-9.23-17.38-9.07a19.48,19.48,0,0,0-19.53,13.4c-1.92,7,1,14.9,6.51,19.58a23,23,0,0,0,19.89,4.81C1405.65,120.13,1411,116.59,1412.69,108.35Z"/><path class="cls-2" d="M1285.23,108.73c.59-10.32-3.93-15.35-3.93-15.35-5-7.33-10.87-9.23-17.38-9.07a19.51,19.51,0,0,0-19.54,13.41c-1.91,7,1,14.89,6.51,19.57a23,23,0,0,0,19.89,4.82C1278.18,120.51,1283.58,117,1285.23,108.73Z"/><path class="cls-10" d="M326.26,409.11c-4.67-.54-6.31-.38-8.53-1.67a5.67,5.67,0,0,1-2.17-2.23l-1.07-2a10.47,10.47,0,0,1-1.07-7L317,378.35a10.37,10.37,0,0,1,2.09-4.1c2.06-2.13,5.42-2.12,8.38-2,2.16.11,3.7.41,5.87.52l1.45.08c7-6.45,16-10.52,25.27-12.67s18.9-2.48,28.42-2.11A58.1,58.1,0,0,1,400,359.45c11.19,2.75,20.13,10.93,28.53,18.82l.71.28c10.88.33,21.62,2.5,32.27,4.74,4.31.9,9,2,11.67,5.53,2.3,3,2.58,7,2.66,10.81.06,2.69,0,5.52-1.26,7.87-1.76,3.19-5.47,4.78-9.05,5.44a57.69,57.69,0,0,1-10,1Z"/><path class="cls-2" d="M323.51,414.65c.08-7.91,3.8-11.52,3.8-11.52,4.19-5.34,8.77-6.48,13.74-6A14.12,14.12,0,0,1,349.29,423a17.58,17.58,0,0,1-15.45,2.64C328.27,424,324.34,421,323.51,414.65Z"/><path class="cls-2" d="M420.84,421.56c.08-7.91,3.79-11.52,3.79-11.52,4.19-5.34,8.78-6.49,13.74-6a14.12,14.12,0,0,1,8.24,25.86,17.59,17.59,0,0,1-15.44,2.64C425.6,430.92,421.67,427.93,420.84,421.56Z"/><path class="cls-11" d="M915.12,403.81c6.68-.75,9-.52,12.2-2.34a8.31,8.31,0,0,0,3.12-3.19l1.53-2.79a15,15,0,0,0,1.56-10l-5-25.59a15,15,0,0,0-3-5.86c-2.94-3.06-7.74-3.06-12-2.85-3.1.16-5.3.57-8.4.72l-2.07.11c-10-9.25-22.8-15.11-36.06-18.23s-27-3.62-40.61-3.14A82.49,82.49,0,0,0,810,332.5c-16,3.87-28.82,15.53-40.87,26.76l-1,.4c-15.56.41-30.92,3.48-46.16,6.62-6.16,1.27-12.85,2.87-16.7,7.85-3.3,4.27-3.72,10-3.86,15.44-.1,3.85-.08,7.89,1.77,11.26,2.5,4.56,7.8,6.86,12.91,7.82a82,82,0,0,0,14.28,1.47Z"/><path class="cls-2" d="M919,411.74c-.08-11.31-5.38-16.48-5.38-16.48-6-7.65-12.51-9.31-19.61-8.68a21.34,21.34,0,0,0-20.38,16c-1.6,7.79,2.09,16.2,8.49,20.92a25.21,25.21,0,0,0,22.06,3.85C912.17,425.1,917.81,420.84,919,411.74Z"/><path class="cls-2" d="M779.88,421.16c-.08-11.3-5.37-16.47-5.37-16.47-6-7.65-12.52-9.31-19.61-8.68a21.35,21.35,0,0,0-20.39,16c-1.59,7.78,2.1,16.2,8.49,20.92a25.19,25.19,0,0,0,22.06,3.84C773,434.52,778.67,430.27,779.88,421.16Z"/><path class="cls-12" d="M1403.09,403.76c5.07-.66,6.85-.52,9.23-1.94a6.33,6.33,0,0,0,2.33-2.46l1.12-2.14a11.34,11.34,0,0,0,1-7.63l-4.13-19.35a11.46,11.46,0,0,0-2.33-4.42c-2.27-2.27-5.92-2.21-9.13-2-2.35.16-4,.5-6.36.66l-1.57.1c-7.72-6.88-17.51-11.15-27.62-13.34s-20.54-2.39-30.87-1.84a63.34,63.34,0,0,0-12.51,1.64c-12.11,3.16-21.67,12.18-30.66,20.87l-.76.32c-11.81.52-23.42,3.05-35,5.65-4.66,1-9.71,2.35-12.57,6.18-2.45,3.29-2.68,7.68-2.72,11.78,0,2.92,0,6,1.5,8.52,2,3.43,6,5.1,9.9,5.76a62.17,62.17,0,0,0,10.86.92Z"/><path class="cls-2" d="M1406.17,409.73c-.22-8.59-4.31-12.44-4.31-12.44-4.63-5.73-9.62-6.9-15-6.32a16.19,16.19,0,0,0-15.26,12.44c-1.1,5.93,1.81,12.26,6.73,15.76a19.12,19.12,0,0,0,16.8,2.62C1401.14,420,1405.37,416.65,1406.17,409.73Z"/><path class="cls-2" d="M1300.67,418.76c-.21-8.58-4.3-12.43-4.3-12.43-4.63-5.73-9.62-6.9-15-6.32a16.19,16.19,0,0,0-15.26,12.43c-1.11,5.94,1.81,12.27,6.73,15.77a19.13,19.13,0,0,0,16.79,2.62C1295.65,429,1299.87,425.69,1300.67,418.76Z"/><path class="cls-11" d="M343.72,97.6c4.81-.6,6.5-.47,8.76-1.81a6,6,0,0,0,2.21-2.33l1.06-2a10.68,10.68,0,0,0,1-7.23l-3.86-18.35a10.68,10.68,0,0,0-2.2-4.19c-2.15-2.17-5.6-2.11-8.64-1.92-2.23.15-3.8.47-6,.61l-1.49.1c-7.3-6.54-16.57-10.62-26.14-12.72s-19.47-2.32-29.25-1.82a59.17,59.17,0,0,0-11.87,1.52c-11.48,3-20.56,11.48-29.11,19.7l-.72.3c-11.19.46-22.21,2.83-33.14,5.26-4.42,1-9.21,2.2-11.92,5.82-2.34,3.11-2.57,7.27-2.61,11.16,0,2.76,0,5.67,1.39,8.08,1.85,3.25,5.68,4.85,9.37,5.48a58.77,58.77,0,0,0,10.29.91Z"/><path class="cls-2" d="M346.62,103.27c-.18-8.14-4-11.8-4-11.8-4.38-5.44-9.11-6.56-14.21-6a15.37,15.37,0,0,0-14.49,11.74,15.45,15.45,0,0,0,6.34,15,18.11,18.11,0,0,0,15.91,2.53C341.84,113,345.85,109.83,346.62,103.27Z"/><path class="cls-2" d="M246.62,111.55c-.18-8.13-4.05-11.79-4.05-11.79-4.37-5.44-9.1-6.56-14.2-6a15.36,15.36,0,0,0-14.49,11.74,15.45,15.45,0,0,0,6.33,15A18.12,18.12,0,0,0,236.12,123C241.83,121.24,245.84,118.12,246.62,111.55Z"/><path class="cls-12" d="M854.88,103.41c-4.59-.55-6.21-.41-8.38-1.68a5.7,5.7,0,0,1-2.13-2.2l-1-1.93a10.21,10.21,0,0,1-1-6.9l3.56-17.58a10.23,10.23,0,0,1,2.07-4c2-2.09,5.34-2.06,8.25-1.9,2.13.13,3.64.42,5.77.54l1.42.09c6.93-6.31,15.77-10.27,24.91-12.35s18.59-2.35,28-1.94a56.17,56.17,0,0,1,11.35,1.37c11,2.75,19.74,10.84,28,18.63l.69.28c10.7.37,21.25,2.56,31.71,4.8,4.23.91,8.83,2.05,11.45,5.49,2.25,2.95,2.5,6.93,2.57,10.64,0,2.65,0,5.43-1.28,7.74-1.74,3.12-5.4,4.67-8.92,5.31a56.23,56.23,0,0,1-9.83.93Z"/><path class="cls-2" d="M852.15,108.84c.12-7.77,3.79-11.3,3.79-11.3,4.14-5.23,8.65-6.34,13.53-5.86a14.67,14.67,0,0,1,13.94,11.12,14.75,14.75,0,0,1-6,14.34,17.3,17.3,0,0,1-15.19,2.53C856.79,118.07,852.94,115.11,852.15,108.84Z"/><path class="cls-2" d="M947.81,116.07c.11-7.77,3.78-11.3,3.78-11.3,4.15-5.23,8.66-6.34,13.54-5.86A14.67,14.67,0,0,1,979.07,110a14.75,14.75,0,0,1-6,14.34,17.3,17.3,0,0,1-15.19,2.53C952.45,125.3,948.6,122.34,947.81,116.07Z"/></g><g id="Car_Outline" data-name="Car Outline"><path class="cls-4" d="M919.16,410.7c3.47-.38,7.3-.29,10.63-1.47a11.3,11.3,0,0,0,4.54-2.82,16.27,16.27,0,0,0,2.27-3.48c2-3.58,3.15-7.26,2.59-11.41-.17-1.25-.45-2.49-.69-3.73l-3-15.24c-.78-4-1.2-8.25-3.18-11.89-2.46-4.52-7.32-5.68-12.11-5.67-4.36,0-8.69.69-13,.9l1.06.44c-13.73-12.61-31.87-18.77-50.12-20.93a183.45,183.45,0,0,0-30.47-.76,73,73,0,0,0-14.86,2,57.32,57.32,0,0,0-12.19,4.79c-7.81,4.09-14.74,9.68-21.3,15.51q-2.5,2.24-5,4.52l-1.22,1.13c-.18.17-.51.36-.61.57s-.09.26.15.06a3.87,3.87,0,0,1-2.25.38c-5.18.2-10.34.69-15.48,1.36-10.11,1.33-20.13,3.31-30.1,5.41a41,41,0,0,0-11.34,3.71,16.92,16.92,0,0,0-7.8,8.86c-1.55,4-1.72,8.43-1.8,12.66-.1,4.4.16,9.1,2.88,12.76,4.76,6.42,13.66,7.64,21.08,8.28,2.16.19,4.34.28,6.51.36,1.93.08,1.93-2.92,0-3-5.83-.21-11.94-.5-17.53-2.34a15.7,15.7,0,0,1-7.13-4.41c-2.13-2.45-2.71-5.7-2.81-8.85-.19-6-.22-13.59,3.89-18.4,3.75-4.37,9.83-5.69,15.21-6.81,14.73-3.07,29.59-6,44.66-6.6a6.57,6.57,0,0,0,2.86-.5c1.39-.66,2.6-2.18,3.72-3.22,2.37-2.18,4.75-4.34,7.2-6.43A100.27,100.27,0,0,1,800.32,345a54.59,54.59,0,0,1,18.27-6.51c7.23-1.15,14.72-1.18,22-1.13,14.32.11,28.76,1.8,42.21,6.94a76.69,76.69,0,0,1,17.25,9.21c1.32.94,2.6,1.94,3.84,3,1,.82,2.08,2.36,3.4,2.38a59.7,59.7,0,0,0,7.19-.56,37,37,0,0,1,9-.14,8,8,0,0,1,6.58,4.73,29.39,29.39,0,0,1,1.82,6.9l3.84,19.71c.71,3.67.74,7.21-1.08,10.63a21.4,21.4,0,0,1-2.37,4,9.22,9.22,0,0,1-5.4,2.72c-2.56.46-5.2.55-7.78.83-1.89.21-1.92,3.21,0,3Z"/><path class="cls-4" d="M780,417.61q36.27-2.52,72.57-4.38,10.56-.53,21.13-1c1.93-.08,1.94-3.08,0-3q-36.31,1.66-72.59,4-10.56.69-21.11,1.42c-1.92.13-1.93,3.13,0,3Z"/><path class="cls-4" d="M916.69,407.38A29.83,29.83,0,0,0,913.18,393a29,29,0,0,0-5.78-6.94,21.44,21.44,0,0,0-14.19-5.49,29,29,0,0,0-9.85,1.24c-8.81,3-15.93,11.58-15.39,21.18.7,12.2,11.08,21.36,22.92,22.4a28.51,28.51,0,0,0,17.51-4.27,18.55,18.55,0,0,0,8.23-13.38,1.56,1.56,0,0,0-1-1.85,1.51,1.51,0,0,0-1.84,1.05c-.61,4.3-2.34,8.24-5.87,10.91A25,25,0,0,1,895,422.46c-10.82.8-21.43-6-23.69-16.9-1.78-8.58,3.68-17,11.52-20.32a21,21,0,0,1,7.54-1.53c4.62-.2,8.88.26,12.83,2.89a27.46,27.46,0,0,1,5.58,5.4l.52.59c.16.2,0,0,0,0,.1.12.2.26.29.39s.35.5.51.76a25.93,25.93,0,0,1,3.61,13.66A1.5,1.5,0,0,0,916.69,407.38Z"/><path class="cls-4" d="M777.51,415.92A29.8,29.8,0,0,0,774,401.58a28.66,28.66,0,0,0-5.78-6.95A21.54,21.54,0,0,0,754,389.14a29.29,29.29,0,0,0-9.85,1.25c-8.81,3-15.92,11.58-15.38,21.18.69,12.19,11.08,21.35,22.92,22.4a28.58,28.58,0,0,0,17.51-4.27,18.58,18.58,0,0,0,8.23-13.38,1.56,1.56,0,0,0-1.05-1.85,1.52,1.52,0,0,0-1.85,1c-.6,4.29-2.34,8.24-5.87,10.91A25,25,0,0,1,755.83,431c-10.82.8-21.44-6-23.7-16.9-1.78-8.58,3.68-17,11.52-20.32a20.84,20.84,0,0,1,7.54-1.53c4.62-.2,8.88.25,12.83,2.89a28,28,0,0,1,5.59,5.39c.17.2.35.39.51.6s0,0,0,0l.29.39.51.76a26,26,0,0,1,3.6,13.67C774.54,417.85,777.54,417.85,777.51,415.92Z"/><path class="cls-4" d="M785.57,367l18.17-13.38a78.42,78.42,0,0,1,8.23-5.54,31.34,31.34,0,0,1,9.87-3.44c7-1.25,14.36-1.22,21.45-1a156.74,156.74,0,0,1,22.15,2.17c7.44,1.28,14.83,3.23,21.39,7.07l-.3-2.36c-9.77,7.58-22.72,8.87-34.64,9.53-14.15.77-28.27,1.7-42.4,2.7-8,.56-16,1.08-24,1.46-1.92.09-1.93,3.09,0,3,14.68-.69,29.34-1.88,44-2.88,7.19-.48,14.38-.86,21.57-1.24A122.77,122.77,0,0,0,869.62,361a46.1,46.1,0,0,0,19-8.36,1.51,1.51,0,0,0-.3-2.36,61.87,61.87,0,0,0-19.49-6.89,154.51,154.51,0,0,0-22.17-2.63,134.56,134.56,0,0,0-22.53.55,38,38,0,0,0-10.49,2.62,47.7,47.7,0,0,0-8.89,5.26c-7,5-13.82,10.16-20.72,15.24-1.54,1.13,0,3.74,1.51,2.59Z"/><path class="cls-4" d="M709.08,385.4l11.77-.1,5.67-.05c.79,0,1,.11,1.09,1a3.06,3.06,0,0,1-.48,1.66c-1.66,2.76-6.08,2.47-8.85,2.67l-12,.9c-1.92.14-1.93,3.14,0,3l11.33-.85c3.19-.24,6.84-.12,9.69-1.82,2.29-1.36,3.93-4.27,3.07-6.95a3.43,3.43,0,0,0-3.12-2.57c-1.83-.11-3.7,0-5.53,0l-12.65.11a1.5,1.5,0,0,0,0,3Z"/><path class="cls-4" d="M844.23,372.43l14-.48c1.92-.07,1.93-3.07,0-3l-14,.48c-1.93.06-1.94,3.06,0,3Z"/><path class="cls-4" d="M921.09,393.09l19.14-.65c1.93-.07,1.93-3.07,0-3l-19.14.65c-1.93.07-1.94,3.07,0,3Z"/><path class="cls-4" d="M708.66,407.1l20.2-.07a1.5,1.5,0,0,0,0-3l-20.2.07a1.5,1.5,0,0,0,0,3Z"/><path class="cls-4" d="M785.79,405.47q30.11-.68,60.19-2.3,8.44-.46,16.89-1c1.92-.12,1.93-3.12,0-3q-30.06,1.9-60.16,2.85c-5.64.18-11.28.32-16.92.45-1.93,0-1.93,3,0,3Z"/><path class="cls-4" d="M905.59,406.69a15.14,15.14,0,0,0-5.08-11.53,13.5,13.5,0,0,0-13-2.27c-4.85,1.67-8.76,6.4-8.39,11.7.47,6.66,6.09,11.58,12.58,12.11a15.26,15.26,0,0,0,9.39-2.37,10.22,10.22,0,0,0,4.45-7.24,1.54,1.54,0,0,0-1-1.84,1.5,1.5,0,0,0-1.85,1,7.59,7.59,0,0,1-2.74,5.22,12.14,12.14,0,0,1-6.11,2.2c-5.3.44-10.6-2.9-11.58-8.31-1.49-8.29,9.42-12.92,15.52-8.63,3.31,2.32,4.78,5.76,4.86,9.92C902.62,408.62,905.62,408.63,905.59,406.69Z"/><path class="cls-4" d="M767.43,414a16.39,16.39,0,0,0-5.58-12.55,14.64,14.64,0,0,0-14.12-2.32c-5.19,1.87-9.34,7-8.89,12.69.56,7,6.46,12.26,13.34,12.94a16.58,16.58,0,0,0,10.27-2.46,11,11,0,0,0,4.92-7.9c.28-1.89-2.61-2.7-2.89-.8a8.4,8.4,0,0,1-3.05,5.77,13.2,13.2,0,0,1-7,2.43c-5.75.33-11.29-3.3-12.42-9.11-1.78-9.11,10.26-14.37,17-9.67,3.67,2.55,5.33,6.42,5.42,11C764.46,416,767.46,416,767.43,414Z"/><path class="cls-4" d="M932.21,365c-3.54.31-7.16.43-10.68.95-1.79.27-2.59,1.48-2.77,3.2A9.28,9.28,0,0,0,919,373a4.4,4.4,0,0,0,2.94,2.91,13.7,13.7,0,0,0,4.82,0l10.72-.9c1.91-.16,1.93-3.16,0-3l-8.71.73c-1.43.12-2.86.26-4.29.36-.85,0-2,.2-2.47-.64a4.71,4.71,0,0,1-.33-2.63c0-.23,0-.47,0-.7a1.54,1.54,0,0,1,.09-.37l-.09.16a7.88,7.88,0,0,1,1.75-.18l8.7-.76c1.91-.17,1.92-3.17,0-3Z"/><path class="cls-4" d="M1406.29,409c2.65-.34,5.57-.33,8.11-1.26a9.55,9.55,0,0,0,5.3-5,14.4,14.4,0,0,0,1.94-8.79c-.14-1-.4-2.08-.62-3.11l-2.48-11.66c-.66-3.1-1-6.46-2.75-9.21-3.94-6.36-13.24-3.59-19.29-3.18l1.06.44c-10.81-9.55-24.88-14-39-15.37a138.62,138.62,0,0,0-23.32-.08,48.19,48.19,0,0,0-20.26,5.67,84.45,84.45,0,0,0-16,12.24q-1.68,1.56-3.33,3.15l-.9.86s-1,1-.31.51c-.58.43-1.54.29-2.21.33-4,.25-8,.72-12,1.33-7.68,1.17-15.33,2.79-22.88,4.6-6,1.44-11.88,4-13.92,10.38a32.12,32.12,0,0,0-1,10.79c.12,3.76,1,7.46,4,10a18.5,18.5,0,0,0,9.25,3.78,75,75,0,0,0,10.48.85c1.93,0,1.93-3,0-3-4.33-.09-8.84-.22-13-1.46a11.75,11.75,0,0,1-5.62-3.3c-1.6-1.83-2-4.29-2.09-6.63-.18-4.37-.32-9.87,2.59-13.46,2.77-3.42,7.49-4.45,11.57-5.37,11.06-2.5,22.22-4.94,33.58-5.55a5,5,0,0,0,2.3-.49,14.06,14.06,0,0,0,2.72-2.46c1.76-1.68,3.53-3.35,5.35-5a76.57,76.57,0,0,1,11.56-8.71,41.39,41.39,0,0,1,13.59-5.28,98.13,98.13,0,0,1,16.78-1.22c10.81-.13,21.72.91,31.95,4.55a58.23,58.23,0,0,1,13.1,6.57c.93.63,1.85,1.29,2.73,2s1.88,2,2.91,2.27a6,6,0,0,0,1.8,0c1.06-.08,2.1-.19,3.15-.32,3.87-.48,10-1.7,12.35,2.44a17.7,17.7,0,0,1,1.62,5.22l3.22,15.12c.57,2.66.78,5.24-.47,7.8a19.59,19.59,0,0,1-1.62,3,6.37,6.37,0,0,1-4,2.26c-1.91.4-3.9.5-5.84.75s-1.92,3.24,0,3Z"/><path class="cls-4" d="M1300.72,416.11q27.38-2.39,54.79-4.28,8.13-.56,16.27-1.07c1.91-.12,1.93-3.13,0-3q-27.43,1.74-54.82,4l-16.24,1.38c-1.91.17-1.92,3.17,0,3Z"/><path class="cls-4" d="M1404.74,406.16c-.21-6.38-2.53-12.08-7.38-16.26a16.76,16.76,0,0,0-11.1-4.13,22.42,22.42,0,0,0-7.71,1.12c-6.86,2.53-12.29,9.42-11.53,17,.94,9.36,9.06,16.2,18.28,16.71a22,22,0,0,0,13.35-3.68,14.69,14.69,0,0,0,6.09-10.73c.24-1.91-2.76-1.9-3,0a11.48,11.48,0,0,1-4.29,7.91,18.6,18.6,0,0,1-9.72,3.48c-8,.56-15.81-4.42-17.51-12.46-1.34-6.38,2.78-12.66,8.6-15.1a16,16,0,0,1,5.45-1.12,14.77,14.77,0,0,1,9.62,2.13c5.17,3.44,7.65,8.91,7.85,15.16C1401.81,408.08,1404.81,408.09,1404.74,406.16Z"/><path class="cls-4" d="M1299.22,414.52c-.22-6.38-2.54-12.08-7.39-16.25a16.71,16.71,0,0,0-11.09-4.14,22.45,22.45,0,0,0-7.72,1.13c-6.86,2.52-12.29,9.41-11.53,17,1,9.37,9.07,16.2,18.28,16.71a22,22,0,0,0,13.35-3.67,14.72,14.72,0,0,0,6.1-10.74c.24-1.91-2.77-1.89-3,0a11.52,11.52,0,0,1-4.29,7.91,18.66,18.66,0,0,1-9.72,3.48c-8,.56-15.82-4.41-17.52-12.46-1.34-6.37,2.78-12.65,8.61-15.1a16.16,16.16,0,0,1,5.44-1.12c3.46-.24,6.68.17,9.62,2.13,5.18,3.45,7.65,8.92,7.86,15.16C1296.28,416.45,1299.28,416.45,1299.22,414.52Z"/><path class="cls-4" d="M1304.48,377.57l13.41-10.26c4.12-3.15,8.19-6,13.35-7.1a77.58,77.58,0,0,1,16.18-1.14,117.84,117.84,0,0,1,16.67,1.26c5.78.87,11.55,2.23,16.69,5.11l-.3-2.36c-7.33,5.88-17.18,7-26.24,7.63-10.57.75-21.12,1.65-31.68,2.59-6.1.53-12.2,1.05-18.31,1.44-1.92.13-1.94,3.13,0,3,11.19-.73,22.36-1.84,33.54-2.79,5.41-.46,10.83-.85,16.25-1.23a91.75,91.75,0,0,0,14.31-1.88,35.26,35.26,0,0,0,14.25-6.64,1.5,1.5,0,0,0-.3-2.35,47.48,47.48,0,0,0-15.19-5.05,117.32,117.32,0,0,0-17.24-1.69,102.67,102.67,0,0,0-17,.79,30.7,30.7,0,0,0-14.38,6.22C1313.27,367,1308.14,371,1303,375c-1.51,1.15,0,3.76,1.52,2.59Z"/><path class="cls-4" d="M1246.48,392.62l8.93-.23,4.47-.12h.4c-.29-.22-.33-.2-.14.05,0,.08.06.21.07.3a1.92,1.92,0,0,1-.34,1.18c-1.25,1.93-4.58,1.73-6.57,1.92l-8.82.81a1.54,1.54,0,0,0-1.5,1.5,1.51,1.51,0,0,0,1.5,1.5l8.33-.77c2.53-.23,5.4-.19,7.66-1.51a5.19,5.19,0,0,0,2.58-5.68,3,3,0,0,0-2.77-2.3c-1.34-.05-2.7.07-4,.1l-9.76.26c-1.93.05-1.94,3.05,0,3Z"/><path class="cls-4" d="M1348.89,381l10.6-.56a1.54,1.54,0,0,0,1.5-1.5,1.52,1.52,0,0,0-1.5-1.5l-10.6.56a1.53,1.53,0,0,0-1.5,1.5,1.51,1.51,0,0,0,1.5,1.5Z"/><path class="cls-4" d="M1407.51,395.59l14.52-.75c1.92-.1,1.93-3.11,0-3l-14.52.75c-1.92.1-1.93,3.11,0,3Z"/><path class="cls-4" d="M1246.45,409.1l15.33-.32c1.93,0,1.94-3,0-3l-15.33.32c-1.92,0-1.93,3,0,3Z"/><path class="cls-4" d="M1305,406.82q29.26-1.17,58.46-3.55c1.91-.15,1.93-3.15,0-3q-29.19,2.37-58.46,3.55c-1.93.08-1.94,3.08,0,3Z"/><path class="cls-4" d="M1396.31,405.79a11.87,11.87,0,0,0-4.1-9,9.43,9.43,0,0,0-6.15-2.26,12.13,12.13,0,0,0-4.1.6c-3.8,1.38-6.87,5.14-6.5,9.33a10.55,10.55,0,0,0,10.06,9.4,11.91,11.91,0,0,0,7.33-2,8.42,8.42,0,0,0,3.46-6.12,1.5,1.5,0,0,0-1.5-1.5,1.53,1.53,0,0,0-1.5,1.5c-.43,3.33-3.66,5-6.78,5.14-3.76.14-7.44-2.31-8-6.17a5.94,5.94,0,0,1,1.29-4.52,7.21,7.21,0,0,1,2.9-2.14,9.2,9.2,0,0,1,1.45-.41c.3-.05,0,0,0,0l.35,0,.89-.05a6.58,6.58,0,0,1,4.4,1.1,10.51,10.51,0,0,1,1.81,1.78l.22.25c.15.17,0-.07-.07-.09a4.56,4.56,0,0,1,.27.39,9.31,9.31,0,0,1,1.32,4.75C1393.38,407.71,1396.38,407.72,1396.31,405.79Z"/><path class="cls-4" d="M1291.54,413.23a12.8,12.8,0,0,0-4.44-9.66,11.43,11.43,0,0,0-11-1.78c-4.08,1.49-7.38,5.54-7,10A11.38,11.38,0,0,0,1279.91,422a12.87,12.87,0,0,0,7.92-2.17,9,9,0,0,0,3.71-6.55,1.51,1.51,0,0,0-1.5-1.5,1.53,1.53,0,0,0-1.5,1.5c-.48,3.71-4,5.61-7.53,5.74-4.16.15-8.22-2.56-8.89-6.82-.51-3.22,1.78-6.33,4.65-7.44a10.68,10.68,0,0,1,1.59-.44c.3,0,.09,0,0,0l.39,0,1-.05a7.29,7.29,0,0,1,4.85,1.21,11.65,11.65,0,0,1,2,2l.24.27,0-.06.29.42a10.4,10.4,0,0,1,1.46,5.25C1288.6,415.15,1291.61,415.16,1291.54,413.23Z"/><path class="cls-4" d="M1415.61,373.38c-2.72.29-5.49.44-8.19.88a2.75,2.75,0,0,0-2.34,2.8,7.59,7.59,0,0,0,.24,3,3.7,3.7,0,0,0,2.34,2.45,8.8,8.8,0,0,0,3.72,0l8.35-.85a1.54,1.54,0,0,0,1.5-1.5,1.52,1.52,0,0,0-1.5-1.5l-6.78.69c-1.09.11-2.19.25-3.28.33a3.47,3.47,0,0,1-1,0c-.26-.05-.27-.09-.39-.32a3.77,3.77,0,0,1-.21-1.73,3.2,3.2,0,0,0,0-.53c-.07,0-.06-.06,0-.2a1.48,1.48,0,0,1-.25.35s1-.12,1.15-.13l6.59-.7a1.54,1.54,0,0,0,1.5-1.5,1.5,1.5,0,0,0-1.5-1.5Z"/><path class="cls-4" d="M346.75,102.58c2.56-.32,5.39-.3,7.83-1.23a9.08,9.08,0,0,0,5-4.67,13.65,13.65,0,0,0,1.85-8.53c-.14-1-.37-1.9-.56-2.84l-2.29-10.89c-.62-3-1-6.14-2.56-8.78-3.69-6.2-12.6-3.58-18.41-3.21l1.06.44c-10.15-9-23.37-13.3-36.7-14.66a130.44,130.44,0,0,0-22.62-.15,45.56,45.56,0,0,0-19.2,5.4,81.87,81.87,0,0,0-15.44,11.79q-1.68,1.56-3.33,3.15l-.9.86c.33-.3.25,0-.1.1a14.44,14.44,0,0,1-2.29.18c-3.69.24-7.37.68-11,1.23-7.34,1.11-14.67,2.61-21.88,4.37-5.72,1.39-11.07,4-12.91,10a31.61,31.61,0,0,0-.89,10.53c.17,3.45,1.14,6.77,3.86,9.06,5,4.17,12.51,4.26,18.67,4.4,1.93,0,1.93-3,0-3a47.81,47.81,0,0,1-12.22-1.39,11.43,11.43,0,0,1-5.1-2.85,9.13,9.13,0,0,1-2.2-6c-.23-4.2-.37-9.61,2.35-13.1,2.51-3.22,6.91-4.23,10.69-5.08,10.42-2.34,20.94-4.61,31.63-5.21a6.61,6.61,0,0,0,2.51-.39A10.51,10.51,0,0,0,244.06,70c1.66-1.59,3.34-3.16,5.06-4.69A74.42,74.42,0,0,1,260,57a39.85,39.85,0,0,1,13-5.15,90.72,90.72,0,0,1,15.88-1.16c10.21-.11,20.52.86,30.2,4.28a55.58,55.58,0,0,1,12.57,6.29c.93.63,1.85,1.29,2.73,2s1.76,1.87,2.74,2.15a5.7,5.7,0,0,0,1.7,0c1-.07,2-.18,3-.3,3.74-.45,9.55-1.59,11.71,2.45A16.91,16.91,0,0,1,355,72.37l3,14.19c.53,2.53.74,5-.45,7.4A18.88,18.88,0,0,1,356,96.79a5.94,5.94,0,0,1-3.73,2.09c-1.83.38-3.72.47-5.56.7s-1.92,3.23,0,3Z"/><path class="cls-4" d="M246.68,109.05q26-2.19,52-3.92,7.66-.51,15.32-1c1.91-.11,1.93-3.11,0-3Q288,102.75,262,104.79q-7.65.61-15.29,1.26c-1.91.16-1.93,3.16,0,3Z"/><path class="cls-4" d="M345.37,99.81a20.65,20.65,0,0,0-7-15.5,15.93,15.93,0,0,0-10.72-4,21.27,21.27,0,0,0-7.22,1.08c-6.53,2.42-11.68,9-10.95,16.16.91,8.93,8.65,15.43,17.44,15.9A20.82,20.82,0,0,0,339.54,110a14,14,0,0,0,5.83-10.21c.24-1.91-2.76-1.89-3,0a10.82,10.82,0,0,1-4,7.39,17.56,17.56,0,0,1-9,3.27c-7.61.59-15.1-4.12-16.69-11.81-1.23-6,2.65-11.84,8.09-14.14A15.26,15.26,0,0,1,326,83.45,13.84,13.84,0,0,1,335,85.51c4.86,3.26,7.16,8.4,7.34,14.3C342.43,101.73,345.43,101.74,345.37,99.81Z"/><path class="cls-4" d="M245.33,107.46a20.64,20.64,0,0,0-7-15.5A16,16,0,0,0,227.6,88a21.06,21.06,0,0,0-7.22,1.08c-6.53,2.42-11.68,9-10.94,16.16.91,8.92,8.65,15.43,17.43,15.9a20.92,20.92,0,0,0,12.64-3.48,14,14,0,0,0,5.82-10.21c.25-1.91-2.76-1.9-3,0a10.8,10.8,0,0,1-4,7.39,17.56,17.56,0,0,1-9,3.27c-7.61.59-15.1-4.12-16.69-11.81-1.24-6,2.64-11.84,8.09-14.14a15,15,0,0,1,5.22-1.07A13.92,13.92,0,0,1,235,93.15c4.85,3.27,7.15,8.41,7.33,14.31C242.39,109.38,245.39,109.39,245.33,107.46Z"/><path class="cls-4" d="M250.38,72.52l12.73-9.68c3.89-3,7.72-5.67,12.59-6.68a73.3,73.3,0,0,1,15.52-1,111.23,111.23,0,0,1,15.68,1.25c5.46.83,10.9,2.14,15.75,4.86l-.3-2.35c-6.92,5.51-16.19,6.54-24.71,7.13-10.07.69-20.13,1.52-30.19,2.38-5.78.49-11.55,1-17.33,1.32-1.92.12-1.93,3.12,0,3,10.62-.67,21.21-1.69,31.8-2.57,5.11-.42,10.21-.76,15.32-1.11a87.5,87.5,0,0,0,13.69-1.76A33.6,33.6,0,0,0,324.47,61a1.52,1.52,0,0,0-.3-2.36,45.25,45.25,0,0,0-14.26-4.8,112,112,0,0,0-16-1.66,98.56,98.56,0,0,0-16.29.65,27.68,27.68,0,0,0-7.64,2,33.27,33.27,0,0,0-6.25,3.81c-5,3.68-9.9,7.5-14.84,11.26-1.51,1.15,0,3.76,1.52,2.59Z"/><path class="cls-4" d="M195.33,86.65l8.47-.21,4.24-.1h.37c-.33-.25-.4-.25-.2,0a1.05,1.05,0,0,0,.06.24,1.68,1.68,0,0,1-.32,1.08c-1.17,1.79-4.32,1.59-6.17,1.76l-8.36.75a1.54,1.54,0,0,0-1.5,1.5,1.52,1.52,0,0,0,1.5,1.5l7.89-.71c2.42-.22,5.15-.17,7.31-1.42a5,5,0,0,0,2.49-5.47,3,3,0,0,0-2.7-2.24c-1.26-.06-2.56.06-3.82.09l-9.26.22c-1.93,0-1.93,3,0,3Z"/><path class="cls-4" d="M292.42,75.85l10.05-.5a1.5,1.5,0,0,0,0-3l-10.05.5a1.5,1.5,0,0,0,0,3Z"/><path class="cls-4" d="M347.94,89.89l13.77-.68a1.54,1.54,0,0,0,1.5-1.5,1.51,1.51,0,0,0-1.5-1.5l-13.77.68a1.5,1.5,0,0,0,0,3Z"/><path class="cls-4" d="M195.27,102.26,209.8,102c1.92,0,1.93-3,0-3l-14.53.27c-1.93,0-1.94,3,0,3Z"/><path class="cls-4" d="M250.74,100.26q27.74-1,55.42-3.21c1.91-.15,1.93-3.15,0-3q-27.68,2.16-55.42,3.21c-1.93.07-1.94,3.07,0,3Z"/><path class="cls-4" d="M337.37,99.43a11.33,11.33,0,0,0-3.88-8.54,9,9,0,0,0-5.88-2.18,11.76,11.76,0,0,0-3.91.56c-3.64,1.31-6.58,4.9-6.24,8.91a10.1,10.1,0,0,0,9.59,9,11.37,11.37,0,0,0,7-1.9,8,8,0,0,0,3.32-5.86c.11-.8-.76-1.5-1.5-1.5a1.55,1.55,0,0,0-1.5,1.5c-.41,3.11-3.45,4.68-6.36,4.78-3.52.12-7-2.19-7.52-5.81a5.49,5.49,0,0,1,1.23-4.22,6.86,6.86,0,0,1,2.7-2,8.3,8.3,0,0,1,1.38-.38c.29,0,0,0,0,0l.33,0,.85,0a6.14,6.14,0,0,1,4.12,1,10,10,0,0,1,1.69,1.68l.21.24c.15.17-.06-.08-.07-.1l.25.37a8.74,8.74,0,0,1,1.22,4.46C334.44,101.36,337.44,101.37,337.37,99.43Z"/><path class="cls-4" d="M238.06,106.21a12.21,12.21,0,0,0-4.2-9.22,9.63,9.63,0,0,0-6.31-2.33,12.44,12.44,0,0,0-4.24.6c-3.9,1.41-7.06,5.27-6.69,9.58a10.87,10.87,0,0,0,10.32,9.69,12.25,12.25,0,0,0,7.55-2,8.63,8.63,0,0,0,3.57-6.27,1.51,1.51,0,0,0-1.5-1.5,1.53,1.53,0,0,0-1.5,1.5c-.46,3.47-3.83,5.22-7.08,5.34-3.9.13-7.72-2.43-8.33-6.44-.46-3,1.75-5.94,4.38-6.93a9.61,9.61,0,0,1,1.51-.41c.3-.06.06,0,0,0l.36,0,.92,0a6.81,6.81,0,0,1,4.56,1.16,11,11,0,0,1,1.88,1.85c.07.09.15.17.23.26s-.05-.06-.06-.08l.27.41a9.67,9.67,0,0,1,1.36,4.93C235.12,108.13,238.12,108.14,238.06,106.21Z"/><path class="cls-4" d="M355.67,68.7c-2.58.26-5.22.4-7.78.81a2.68,2.68,0,0,0-2.28,2.73,7.12,7.12,0,0,0,.22,2.83,3.56,3.56,0,0,0,2.27,2.38,8.49,8.49,0,0,0,3.55,0l7.91-.78a1.54,1.54,0,0,0,1.5-1.5,1.51,1.51,0,0,0-1.5-1.5l-6.43.63c-1,.11-2.07.23-3.11.31a4.22,4.22,0,0,1-.95,0c-.12,0-.24-.1-.12,0-.15-.09-.09,0-.19-.24s-.05-.1,0,0c0-.08-.05-.16-.07-.24s-.1-.5-.08-.34a7.09,7.09,0,0,1,0-1,4.21,4.21,0,0,0,0-.5c0,.08,0,0,0-.16a.8.8,0,0,1-.28.37c-.07,0,0,0,.15,0l.19,0,.72-.07,6.25-.64a1.54,1.54,0,0,0,1.5-1.5,1.5,1.5,0,0,0-1.5-1.5Z"/><path class="cls-4" d="M852.31,105.19c-2.86-.33-7.2,0-9-2.8-1.56-2.4-2.62-5.15-2.09-8,.7-3.89,1.57-7.76,2.36-11.64.36-1.81.7-3.63,1.1-5.44a10.71,10.71,0,0,1,.85-2.44A5.32,5.32,0,0,1,850.28,72a34.72,34.72,0,0,1,6.44.32c.93.1,1.86.2,2.79.25a5.46,5.46,0,0,0,1.71,0c.89-.25,1.7-1.31,2.41-1.89.87-.71,1.77-1.39,2.7-2a49.77,49.77,0,0,1,5.75-3.42c8.43-4.32,17.89-6.25,27.3-6.83a136.65,136.65,0,0,1,15,0,45.71,45.71,0,0,1,14.16,2.52C936.82,64,943.62,70.08,950,76c1.32,1.24,2.32,2.48,4.2,2.59,2.59.15,5.17.31,7.76.6,5.1.57,10.17,1.47,15.21,2.48,4.47.9,9.2,1.57,13.49,3.17a11.45,11.45,0,0,1,4.68,3,10.92,10.92,0,0,1,2.33,5.73,37.49,37.49,0,0,1,.27,6.53,9.35,9.35,0,0,1-1.78,5.91c-2.51,3-6.87,3.65-10.53,4.08-2.06.24-4.14.32-6.22.38-1.92.06-1.93,3.06,0,3,5.41-.16,11.83-.28,16.51-3.33,5.37-3.5,5.42-10,4.84-15.77a15.14,15.14,0,0,0-2.94-8.23,14.82,14.82,0,0,0-6.89-4.39A75.54,75.54,0,0,0,982,79.65c-3.5-.73-7-1.43-10.52-2s-7-1.12-10.51-1.49c-1.77-.18-3.55-.32-5.33-.42a11.88,11.88,0,0,1-1.79-.13c-.35-.07-.42-.38-.08-.08-.41-.37-.81-.77-1.21-1.14a105.16,105.16,0,0,0-14.13-11.67A41.78,41.78,0,0,0,921,55.93a111.64,111.64,0,0,0-21.16-.57c-14.46.82-29.12,4.81-40.09,14.7l1.06-.44c-2.65-.15-5.28-.55-7.93-.66-2.88-.12-6.07.08-8.31,2.12-2.52,2.29-2.92,5.91-3.56,9l-2.17,10.7c-.18.9-.38,1.8-.54,2.71a12.38,12.38,0,0,0,1.17,8.13c1.11,2.14,2.26,4,4.57,5.09,2.54,1.16,5.53,1.11,8.26,1.43,1.91.22,1.9-2.78,0-3Z"/><path class="cls-4" d="M948,110.69q-24.81-1.92-49.63-3.39-7.39-.42-14.8-.82c-1.93-.1-1.92,2.9,0,3q24.84,1.33,49.65,3.1,7.39.54,14.78,1.11c1.92.14,1.91-2.86,0-3Z"/><path class="cls-4" d="M856.56,105.46A17.85,17.85,0,0,1,858.61,97c.21-.38.45-.75.69-1.11a2.55,2.55,0,0,1,.37-.46c.6-.7,1.19-1.41,1.84-2.06a12.26,12.26,0,0,1,8.35-3.71,17.89,17.89,0,0,1,5.86.59c4.91,1.45,9.23,6,9.33,11.34.13,7.3-6.13,13.17-13.18,13.83A17.4,17.4,0,0,1,861.22,113a10.44,10.44,0,0,1-4.72-7.91,1.51,1.51,0,0,0-1.84-1,1.54,1.54,0,0,0-1,1.85,13.13,13.13,0,0,0,4.8,8.79,19.68,19.68,0,0,0,10.21,3.8c8.39.79,16.79-4.47,18.93-12.76a14.26,14.26,0,0,0-1.63-11.06,16.22,16.22,0,0,0-13.26-7.84c-3.53-.13-6.83.07-9.95,1.9-6,3.52-9,10-9.15,16.77C853.51,107.39,856.51,107.39,856.56,105.46Z"/><path class="cls-4" d="M952.24,112.08a18,18,0,0,1,2-8.42c.22-.38.45-.75.7-1.11a2.81,2.81,0,0,1,.36-.47c.6-.69,1.19-1.41,1.84-2.06a12.29,12.29,0,0,1,8.35-3.7,18.16,18.16,0,0,1,5.86.58c4.91,1.46,9.24,6,9.33,11.35.13,7.3-6.13,13.16-13.18,13.82a17.35,17.35,0,0,1-10.65-2.48,10.47,10.47,0,0,1-4.71-7.91,1.51,1.51,0,0,0-1.85-1.05,1.54,1.54,0,0,0-1.05,1.85,13.17,13.17,0,0,0,4.81,8.79,19.82,19.82,0,0,0,10.21,3.8c8.38.78,16.79-4.47,18.93-12.77a14.24,14.24,0,0,0-1.64-11A16,16,0,0,0,975,95.11a16.29,16.29,0,0,0-6.63-1.71c-3.52-.12-6.82.08-10,1.91-6,3.52-9,10-9.15,16.77C949.19,114,952.19,114,952.24,112.08Z"/><path class="cls-4" d="M945.71,76.18l-12.77-9.56c-3.89-2.9-7.83-5.37-12.67-6.27a77,77,0,0,0-15.54-.91,111.22,111.22,0,0,0-15.88,1.47,45.33,45.33,0,0,0-15.27,5,1.51,1.51,0,0,0-.31,2.36c6.94,5.43,15.68,6.79,24.24,7.39,9.9.69,19.81,1.33,29.71,2.11,5.75.45,11.5.88,17.26,1.2,1.92.1,1.92-2.9,0-3-9.84-.55-19.66-1.41-29.48-2.16q-7.23-.55-14.47-1a90,90,0,0,1-12.48-1.35,29.67,29.67,0,0,1-12.65-5.36l-.31,2.36a40.67,40.67,0,0,1,12.82-4.38A100.74,100.74,0,0,1,903,62.49a89,89,0,0,1,15,.52,22.38,22.38,0,0,1,6.87,2,39,39,0,0,1,5.63,3.6c4.57,3.37,9.09,6.8,13.63,10.2,1.55,1.16,3-1.44,1.52-2.59Z"/><path class="cls-4" d="M997,88.91l-7.65-.12-3.9-.07c-1.34,0-2.49.1-3.24,1.37a4.52,4.52,0,0,0,1.29,5.56c1.86,1.52,4.35,1.59,6.63,1.77l8.74.72a1.5,1.5,0,0,0,1.5-1.5,1.54,1.54,0,0,0-1.5-1.5l-8-.66c-1.75-.14-4.74.08-5.86-1.59a1.56,1.56,0,0,1-.31-1c0,.06.05-.13,0-.2.19-.26.11-.26-.26,0h.21a4.37,4.37,0,0,0,1.2,0h.9l2.1,0,8.1.13c1.93,0,1.93-3,0-3Z"/><path class="cls-4" d="M904.06,79.26l-9.61-.4a1.52,1.52,0,0,0-1.5,1.5,1.54,1.54,0,0,0,1.5,1.5l9.61.4a1.51,1.51,0,0,0,1.5-1.5,1.54,1.54,0,0,0-1.5-1.5Z"/><path class="cls-4" d="M851.08,93.07l-13.16-.56a1.5,1.5,0,0,0,0,3l13.16.56a1.5,1.5,0,0,0,0-3Z"/><path class="cls-4" d="M997.12,103.84l-13.89-.15c-1.93,0-1.93,3,0,3l13.89.15a1.5,1.5,0,0,0,0-3Z"/><path class="cls-4" d="M944.08,102.31q-26.54-.81-53-2.69c-1.92-.13-1.91,2.87,0,3q26.48,1.89,53,2.69c1.93.06,1.93-2.94,0-3Z"/><path class="cls-4" d="M864.19,105.05a8.68,8.68,0,0,1,1-4,5,5,0,0,1,.31-.49c.23-.36-.17.17.06-.08s.57-.68.88-1a5.53,5.53,0,0,1,3.67-1.77c.6,0,1.21,0,1.81,0h.26c.38,0-.33-.06.06,0a6,6,0,0,1,.71.16,5.94,5.94,0,0,1,2.65,1.48,5.56,5.56,0,0,1,1.77,3.5c.18,3.44-2.77,6.24-6.07,6.57a8.29,8.29,0,0,1-5.11-1.2,4.73,4.73,0,0,1-2.05-3.61,1.51,1.51,0,0,0-1.85-1.05,1.54,1.54,0,0,0-1,1.85c.59,4.27,4.3,6.59,8.35,7a9.88,9.88,0,0,0,10.51-7.14,8.58,8.58,0,0,0-4.67-9.64,10.2,10.2,0,0,0-9.21.16,10.76,10.76,0,0,0-5,9.23C861.14,107,864.14,107,864.19,105.05Z"/><path class="cls-4" d="M959.19,110.83a9.28,9.28,0,0,1,1.1-4.45c.11-.19.23-.36.34-.54.24-.37-.15.14.09-.11s.61-.74.95-1.08a6.13,6.13,0,0,1,4.1-2c.66,0,1.32,0,2,0l.29,0c.4,0-.32-.07.1,0,.26,0,.52.1.77.17,2.34.64,4.8,2.84,4.92,5.57.16,3.82-3.05,6.93-6.75,7.29a9.18,9.18,0,0,1-5.64-1.33,5.28,5.28,0,0,1-2.3-4,1.5,1.5,0,0,0-1.84-1,1.53,1.53,0,0,0-1,1.84c.64,4.59,4.61,7.09,9,7.53a10.64,10.64,0,0,0,11.33-7.68,9.22,9.22,0,0,0-5-10.36,10.94,10.94,0,0,0-9.89.17,11.55,11.55,0,0,0-5.43,9.94C956.14,112.76,959.14,112.76,959.19,110.83Z"/><path class="cls-4" d="M843.57,78.73l6,.57.69.07.33,0a.87.87,0,0,1-.33-.42c0,.18.06.23,0,.15s0,.34,0,.47a6.41,6.41,0,0,1,0,1c0-.23,0,.19,0,.24a1.4,1.4,0,0,1-.09.29c.05-.1.05-.1,0,0a1.18,1.18,0,0,1-.11.19c.06-.09.06-.1,0,0h0c-.15.11-.2.13-.14.06a3.59,3.59,0,0,1-.89,0c-1-.06-2-.18-3-.27l-6.15-.56a1.51,1.51,0,0,0-1.5,1.5,1.53,1.53,0,0,0,1.5,1.5l7.57.69a8,8,0,0,0,3.41,0,3.5,3.5,0,0,0,2.21-2.33,7.18,7.18,0,0,0,.2-2.73A2.65,2.65,0,0,0,851,76.46c-2.46-.38-5-.49-7.46-.73a1.5,1.5,0,0,0,0,3Z"/><path class="cls-4" d="M1412.9,107.42c3.25-.14,6.8.16,9.95-.78a10.54,10.54,0,0,0,4.22-2.35,15.79,15.79,0,0,0,2.33-3.17,16.29,16.29,0,0,0,2.92-10.4c-.1-1-.26-2.08-.39-3.12l-1.84-14.3c-.49-3.83-.63-7.92-2.43-11.42-2.13-4.14-6.7-5.26-11-5.49-3.87-.2-7.75.13-11.62.07l1.06.44C1394.48,44.77,1378.46,38,1362.16,35a168.37,168.37,0,0,0-27.45-2.58,73.61,73.61,0,0,0-13.68.78,51.57,51.57,0,0,0-11.76,3.59c-7.52,3.24-14.26,8-20.7,13-1.68,1.31-3.34,2.64-5,4l-1.15.94c-.15.12-1.19.91-.55.57a4.16,4.16,0,0,1-2.19.18c-4.81-.12-9.64,0-14.44.35-9.32.63-18.61,1.87-27.85,3.22a34,34,0,0,0-10.71,3,15.34,15.34,0,0,0-7.24,7.82c-1.51,3.6-1.92,7.55-2.23,11.41-.33,4-.26,8.36,2.13,11.82,4.11,5.94,12.06,7.57,18.76,8.55,2,.28,3.92.5,5.88.7s1.91-2.8,0-3c-5.24-.54-10.78-1.17-15.71-3.15a14.37,14.37,0,0,1-6.14-4.33c-1.84-2.42-2.16-5.43-2.06-8.38.18-5.22.59-11.77,4.21-15.89s9.52-5,14.65-5.73c13.57-1.93,27.26-3.72,41-3.36a6,6,0,0,0,3-.38,23.24,23.24,0,0,0,3.6-2.85c2.39-1.94,4.8-3.84,7.27-5.67a90.34,90.34,0,0,1,15.09-9.31,49.15,49.15,0,0,1,17.5-4.66,137.47,137.47,0,0,1,20.39.44c12.72,1,25.53,3.45,37.15,8.9a69.29,69.29,0,0,1,14.92,9.33c1.06.88,2.09,1.8,3.09,2.75s1.83,2.33,3.15,2.49a37.78,37.78,0,0,0,6.11-.07c4.87-.19,12-.74,14.22,4.75a24,24,0,0,1,1.31,6.26l2.35,18.31c.45,3.5.31,6.76-1.61,9.87a19.85,19.85,0,0,1-2.25,3.33,8.08,8.08,0,0,1-5,2.21c-2.43.27-4.9.2-7.33.3-1.92.09-1.94,3.09,0,3Z"/><path class="cls-4" d="M1285.54,105.5q33.17-.15,66.34.3,9.72.14,19.44.32c1.93,0,1.93-3,0-3q-33.16-.63-66.34-.67-9.72,0-19.44,0a1.5,1.5,0,0,0,0,3Z"/><path class="cls-4" d="M1410.88,104a27.15,27.15,0,0,0-2.51-13.53,26.67,26.67,0,0,0-5-6.71,19.78,19.78,0,0,0-12.35-5.6,26.84,26.84,0,0,0-9.33.58c-8.3,2.27-15.21,9.84-15.24,18.67,0,11.21,9.14,20.29,20,21.77a26.4,26.4,0,0,0,16.14-2.95,17.15,17.15,0,0,0,8.29-11.83c.4-1.89-2.49-2.69-2.89-.8a14.25,14.25,0,0,1-5.9,9.42,22.71,22.71,0,0,1-12,3.41c-9.76.09-19-6.68-20.42-16.62-1.12-7.93,4.33-15.33,11.73-17.82a20,20,0,0,1,7.07-.91c4.08.07,7.9.81,11.21,3.36a26.82,26.82,0,0,1,4.8,5.29,1.39,1.39,0,0,0,.15.19c-.26-.34,0,0,.08.13.28.41.54.82.78,1.25,2.14,3.84,2.68,8.37,2.46,12.7C1407.78,106,1410.78,106,1410.88,104Z"/><path class="cls-4" d="M1283.44,103.59a27.17,27.17,0,0,0-2.51-13.53,26.21,26.21,0,0,0-5-6.7,19.68,19.68,0,0,0-12.35-5.6,26.62,26.62,0,0,0-9.33.58C1245.94,80.6,1239,88.17,1239,97c0,11.22,9.14,20.29,20,21.77a26.44,26.44,0,0,0,16.15-3,17.19,17.19,0,0,0,8.29-11.83c.39-1.89-2.5-2.69-2.9-.8a14.27,14.27,0,0,1-5.89,9.42,22.77,22.77,0,0,1-12,3.41c-9.75.09-19-6.68-20.42-16.62-1.12-7.93,4.33-15.33,11.73-17.82a20,20,0,0,1,7.08-.91c4.07.07,7.89.81,11.2,3.36a26.6,26.6,0,0,1,4.8,5.3l.15.18c-.26-.34,0,0,.08.13.28.41.54.82.78,1.25,2.14,3.84,2.68,8.37,2.46,12.7C1280.34,105.52,1283.34,105.51,1283.44,103.59Z"/><path class="cls-4" d="M1293.69,59.59l17.37-11.13a69.48,69.48,0,0,1,8.06-4.67,28.05,28.05,0,0,1,9.17-2.43,105,105,0,0,1,20,.44,139.7,139.7,0,0,1,19.48,3.27c6.67,1.6,13.21,3.82,18.93,7.69V50.17c-9.55,6.46-21.46,6.89-32.62,6.77-12.85-.14-25.7-.11-38.55,0-7.34,0-14.67,0-22-.08-1.93,0-1.93,3,0,3,13.34.23,26.68,0,40,0,6.5,0,13,0,19.51.13a113.68,113.68,0,0,0,17.4-.79,42,42,0,0,0,17.77-6.37,1.52,1.52,0,0,0,0-2.59,56.39,56.39,0,0,0-17.11-7.35,139.16,139.16,0,0,0-19.92-3.71,125.93,125.93,0,0,0-20.63-.91,34.57,34.57,0,0,0-9.93,1.73,43.87,43.87,0,0,0-8.44,4.24c-6.75,4.17-13.38,8.55-20.06,12.83-1.62,1-.12,3.64,1.51,2.59Z"/><path class="cls-4" d="M1222.79,71.93l10.6.6,5.3.29c.64,0,.74.14.73.84a2.73,2.73,0,0,1-.59,1.51c-1.78,2.33-6,1.71-8.54,1.74l-10.59.1a1.5,1.5,0,0,0,0,3l13-.13c3.6,0,7.73-.54,9.28-4.32a4.58,4.58,0,0,0-.55-4.71c-1.3-1.45-3.86-1.09-5.62-1.19l-13-.73c-1.93-.1-1.93,2.9,0,3Z"/><path class="cls-4" d="M1346.81,68.09l12.77.38c1.93.06,1.93-2.94,0-3l-12.77-.38c-1.93-.06-1.93,2.94,0,3Z"/><path class="cls-4" d="M1415.69,91.48l17.5.53c1.93.06,1.93-2.94,0-3l-17.5-.53c-1.93-.06-1.93,2.94,0,3Z"/><path class="cls-4" d="M1221.12,91.7l18.43,1.13c1.93.12,1.92-2.88,0-3l-18.43-1.13c-1.92-.12-1.92,2.88,0,3Z"/><path class="cls-4" d="M1291.57,94.77q27.4,1.17,54.85,1.45,7.82.09,15.64.1a1.5,1.5,0,0,0,0-3q-27.43,0-54.86-.95c-5.21-.18-10.43-.38-15.63-.6-1.94-.08-1.93,2.92,0,3Z"/><path class="cls-4" d="M1400.8,102.75a14,14,0,0,0-4.19-11,12.57,12.57,0,0,0-11.69-2.68c-4.6,1.23-8.4,5.44-8.41,10.33,0,6,4.88,11,10.72,11.86a14.34,14.34,0,0,0,8.9-1.57,9.53,9.53,0,0,0,4.61-6.52c.41-1.89-2.49-2.69-2.89-.8a6.63,6.63,0,0,1-2.8,4.47,11.06,11.06,0,0,1-5.91,1.58c-4.67,0-9.17-3.42-9.6-8.25a8,8,0,0,1,5.9-8.12c2.58-.77,6.19-.53,8.49,1.32a12.9,12.9,0,0,1,2.3,2.59c.1.14-.23-.38,0,0,.13.21.27.41.4.63a11.59,11.59,0,0,1,1.15,6.14C1397.71,104.68,1400.71,104.67,1400.8,102.75Z"/><path class="cls-4" d="M1274.35,101.27a15.08,15.08,0,0,0-4.52-11.91,13.53,13.53,0,0,0-12.61-2.88c-5,1.32-9.06,5.86-9.07,11.12,0,6.53,5.27,11.89,11.58,12.8a15.5,15.5,0,0,0,9.61-1.7,10.28,10.28,0,0,0,5-7c.4-1.88-2.49-2.69-2.89-.8a7.36,7.36,0,0,1-3.12,5,12.31,12.31,0,0,1-6.51,1.75c-5.17,0-10.12-3.8-10.6-9.14-.37-4.14,2.66-7.83,6.53-9,2.94-.88,6.87-.55,9.39,1.48a14.65,14.65,0,0,1,2.51,2.82c.1.13-.22-.36,0,.06.15.24.3.46.43.7a12.58,12.58,0,0,1,1.27,6.75C1271.26,103.2,1274.26,103.2,1274.35,101.27Z"/><path class="cls-4" d="M1427.32,66.23l-4.91.11c-1.57,0-3.17,0-4.74.12a3,3,0,0,0-2.88,2.79,9.13,9.13,0,0,0,0,3.79,4.14,4.14,0,0,0,2.66,2.85,13.22,13.22,0,0,0,4.44.25l9.83-.19c1.93,0,1.93-3,0-3l-8,.15c-1.31,0-2.62.07-3.93.08-.74,0-1.72.06-2.06-.74a4.83,4.83,0,0,1-.08-2.36,3.55,3.55,0,0,1,.08-.47c.14-.66,0,0-.12-.13a2.94,2.94,0,0,0,.63,0l1.07,0,8-.18c1.93,0,1.93-3,0-3Z"/><path class="cls-4" d="M323.66,411c-2.86-.32-7.16,0-9.09-2.65a11.29,11.29,0,0,1-2.29-8.36c.69-3.94,1.56-7.86,2.33-11.79.37-1.87.72-3.74,1.11-5.6a10.72,10.72,0,0,1,.94-2.63,5.42,5.42,0,0,1,4.77-2.8,33.59,33.59,0,0,1,6.34.27,23.92,23.92,0,0,0,4.39.34c1.06-.09,1.86-1.17,2.64-1.82s1.87-1.5,2.86-2.19a53,53,0,0,1,5.73-3.48c8.54-4.45,18.13-6.5,27.68-7.15a140.23,140.23,0,0,1,15.48-.11,46.71,46.71,0,0,1,14.17,2.4c8.37,3,15.29,9.07,21.74,15,1.31,1.21,2.53,2.86,4.42,3,2.6.18,5.18.28,7.77.55,5.29.55,10.53,1.45,15.74,2.47,4.54.88,9.31,1.55,13.68,3.11a11.92,11.92,0,0,1,5,3.11,11.27,11.27,0,0,1,2.43,6,39.92,39.92,0,0,1,.28,6.65,9.12,9.12,0,0,1-2.1,6.18c-2.67,2.8-6.93,3.45-10.6,3.88-2,.23-4.07.32-6.11.39s-1.94,3.07,0,3c5.44-.19,11.84-.34,16.58-3.34a10.67,10.67,0,0,0,4.8-6.55,29.17,29.17,0,0,0,.22-9.6,15.45,15.45,0,0,0-3-8.34,15.07,15.07,0,0,0-7-4.44,78.74,78.74,0,0,0-9.49-2.22c-3.51-.72-7-1.4-10.56-2s-7.33-1.13-11-1.48c-1.78-.16-3.56-.29-5.34-.37a4.26,4.26,0,0,1-1.52-.18c-.34-.14.31.41-.18-.28a8.28,8.28,0,0,0-1.06-1,106.33,106.33,0,0,0-14.58-11.87,42.46,42.46,0,0,0-17.48-6.6,111.85,111.85,0,0,0-21.26-.5c-14.77.88-29.76,5-40.92,15.14l1.06-.44c-2.7-.14-5.37-.53-8.07-.63-2.92-.11-6.16.1-8.43,2.18-2.52,2.31-2.92,5.92-3.54,9.08L310,396.32c-.19.95-.39,1.9-.56,2.85a12.53,12.53,0,0,0,1.23,8.24c1.13,2.17,2.29,4.08,4.62,5.14,2.59,1.18,5.64,1.12,8.42,1.43,1.92.22,1.91-2.79,0-3Z"/><path class="cls-4" d="M421,416.12q-25.33-1.83-50.7-3.21-7.41-.41-14.84-.76c-1.93-.1-1.93,2.9,0,3q25.36,1.23,50.71,2.93l14.83,1c1.93.14,1.92-2.86,0-3Z"/><path class="cls-4" d="M328,411.22a18.24,18.24,0,0,1,2.1-8.67c.2-.35.41-.69.64-1,.09-.14.19-.28.29-.41-.18.23,0,0,.1-.11.6-.69,1.18-1.41,1.82-2.06a12.51,12.51,0,0,1,8.59-3.86,19,19,0,0,1,5.85.55c5.16,1.49,9.63,6.29,9.63,11.85,0,7.38-6.4,13.24-13.53,13.86a17.77,17.77,0,0,1-10.74-2.52,10.67,10.67,0,0,1-4.8-8c-.27-1.91-3.16-1.1-2.89.79a13.32,13.32,0,0,0,4.92,8.92,20,20,0,0,0,10.29,3.8c8.45.8,17-4.46,19.2-12.81a14.49,14.49,0,0,0-1.62-11.4,16.25,16.25,0,0,0-6.89-6.3,16.47,16.47,0,0,0-6.64-1.65c-3.56-.11-6.9.09-10,1.95-6.11,3.6-9.14,10.19-9.27,17.1C324.92,413.15,327.92,413.15,328,411.22Z"/><path class="cls-4" d="M425.3,417.5a18.23,18.23,0,0,1,2.1-8.66c.2-.35.41-.7.64-1,.09-.14.19-.27.29-.41-.18.23,0,0,.1-.11.6-.69,1.18-1.4,1.82-2.05a12.47,12.47,0,0,1,8.59-3.86,18.72,18.72,0,0,1,5.85.55c5.16,1.48,9.63,6.28,9.63,11.84,0,7.38-6.4,13.24-13.53,13.86a17.77,17.77,0,0,1-10.74-2.52,10.65,10.65,0,0,1-4.8-8c-.27-1.9-3.16-1.09-2.89.8a13.34,13.34,0,0,0,4.92,8.92,20,20,0,0,0,10.29,3.8c8.45.79,17-4.46,19.2-12.81a14.49,14.49,0,0,0-1.62-11.4,16.5,16.5,0,0,0-13.53-8c-3.56-.11-6.9.1-10.05,1.95-6.11,3.6-9.13,10.2-9.27,17.1C422.27,419.43,425.27,419.43,425.3,417.5Z"/><path class="cls-4" d="M418.51,381q-6.51-4.83-13-9.66c-4-2.94-8-5.44-12.93-6.33a78.29,78.29,0,0,0-15.83-.84,114.12,114.12,0,0,0-15.87,1.52,46.5,46.5,0,0,0-15.72,5.18,1.51,1.51,0,0,0-.31,2.36c7.09,5.5,16,6.84,24.72,7.41,10.11.65,20.21,1.27,30.32,2,5.8.43,11.6.84,17.41,1.13,1.93.1,1.92-2.9,0-3-9.95-.5-19.88-1.33-29.82-2.05q-7.33-.52-14.68-.91A92.29,92.29,0,0,1,360,376.57a30.5,30.5,0,0,1-13.1-5.42l-.3,2.35a41.93,41.93,0,0,1,13.25-4.56A103.63,103.63,0,0,1,375,367.26a93.23,93.23,0,0,1,15.13.44,23,23,0,0,1,7,1.89,37.67,37.67,0,0,1,5.75,3.6c4.73,3.44,9.4,7,14.1,10.44,1.55,1.15,3.05-1.45,1.51-2.59Z"/><path class="cls-4" d="M470.7,393.75l-7.78-.09-3.81-.05c-1.36,0-2.58,0-3.38,1.3a4.54,4.54,0,0,0,1.2,5.64c1.86,1.57,4.38,1.65,6.69,1.83l9,.7a1.5,1.5,0,0,0,0-3l-8.39-.65c-1.73-.14-4.75.08-5.79-1.68a1.61,1.61,0,0,1-.27-.93.63.63,0,0,0,0-.21c.2-.27.12-.27-.24,0h.52l4,0,8.24.1a1.5,1.5,0,0,0,0-3Z"/><path class="cls-4" d="M376.18,384.37l-9.77-.37a1.5,1.5,0,0,0,0,3l9.77.37a1.5,1.5,0,0,0,0-3Z"/><path class="cls-4" d="M322.36,398.66,309,398.15c-1.93-.07-1.93,2.93,0,3l13.39.51c1.93.07,1.93-2.93,0-3Z"/><path class="cls-4" d="M470.94,408.93l-14.13-.09a1.5,1.5,0,0,0,0,3l14.13.09a1.5,1.5,0,0,0,0-3Z"/><path class="cls-4" d="M417,407.62q-27-.69-53.92-2.48c-1.93-.13-1.92,2.87,0,3Q390,409.92,417,410.62c1.93.05,1.93-2.95,0-3Z"/><path class="cls-4" d="M335.72,410.76a8.79,8.79,0,0,1,1-4.11c.1-.17.21-.34.32-.51.23-.36-.17.17.06-.08s.57-.69.89-1a5.65,5.65,0,0,1,3.74-1.83c.62,0,1.23,0,1.84,0h.27c.38,0-.34-.06.07,0,.24,0,.48.09.71.15a6.16,6.16,0,0,1,2.72,1.5,5.64,5.64,0,0,1,1.83,3.58,6.72,6.72,0,0,1-6.16,6.73,8.36,8.36,0,0,1-5.21-1.19,4.85,4.85,0,0,1-2.13-3.68,1.51,1.51,0,0,0-1.84-1.05,1.55,1.55,0,0,0-1.05,1.85,7.51,7.51,0,0,0,2.72,4.9,11.06,11.06,0,0,0,5.78,2.17,10,10,0,0,0,10.63-7.29,8.69,8.69,0,0,0-4.77-9.76,10.36,10.36,0,0,0-9.33.19,10.91,10.91,0,0,0-5.08,9.39C332.68,412.69,335.68,412.69,335.72,410.76Z"/><path class="cls-4" d="M432.36,416.2a9.65,9.65,0,0,1,1.1-4.55c.11-.19.23-.36.35-.55.24-.37-.14.15.09-.12s.62-.75,1-1.1a6.37,6.37,0,0,1,4.18-2c.67,0,1.34,0,2,0l.29,0c.41,0-.32-.07.11,0a7.25,7.25,0,0,1,.78.17c2.42.64,4.92,2.88,5,5.65.2,3.91-3.07,7.09-6.84,7.48a9.25,9.25,0,0,1-5.76-1.32,5.38,5.38,0,0,1-2.37-4.09,1.5,1.5,0,0,0-2.89.8,8,8,0,0,0,2.92,5.28,11.85,11.85,0,0,0,6.21,2.33A10.79,10.79,0,0,0,450,416.36a9.34,9.34,0,0,0-5.14-10.48,11.1,11.1,0,0,0-10,.21,11.77,11.77,0,0,0-5.47,10.11C429.32,418.13,432.32,418.13,432.36,416.2Z"/><path class="cls-4" d="M314.63,384.06l6.09.55.7.07c.25,0,.31,0,.17,0,.17.05.22.06.15,0a.79.79,0,0,1-.29-.4l0,.15c0,.15,0,.33,0,.49a6.49,6.49,0,0,1,0,1.08c0,.11,0,.11,0,0,0,.1,0,.21-.07.31-.08.26.07,0-.09.21s.09,0-.14.16c.19-.13-.2.05-.1,0a4.39,4.39,0,0,1-1.1,0l-3-.26-6.09-.53a1.51,1.51,0,0,0-1.5,1.5,1.53,1.53,0,0,0,1.5,1.5l7.5.65a10,10,0,0,0,3.49,0,3.51,3.51,0,0,0,2.37-2.35,6.6,6.6,0,0,0,.21-2.83,2.65,2.65,0,0,0-2.26-2.68c-2.5-.39-5.07-.48-7.59-.71a1.5,1.5,0,0,0,0,3Z"/></g></svg>