<?xml version="1.0" encoding="UTF-8"?>
<!DOCTYPE svg PUBLIC "-//W3C//DTD SVG 1.1//EN" "http://www.w3.org/Graphics/SVG/1.1/DTD/svg11.dtd">
<svg version="1.1" xmlns="http://www.w3.org/2000/svg" xmlns:xlink="http://www.w3.org/1999/xlink" x="0" y="0" width="1172" height="104" viewBox="0, 0, 1172, 104">
  <g id="Layer_1">
    <g>
      <path d="M77.941,53.437 L77.941,41.734 L69.01,41.734 C63.261,41.734 58.538,46.456 58.538,52.205 L58.538,87.828 C58.538,91.524 55.561,94.603 51.763,94.603 C48.067,94.603 44.987,91.626 44.987,87.828 L44.987,52.308 C44.987,39.065 55.767,28.286 69.01,28.286 L76.298,28.286 L77.941,28.286 L77.941,17.609 L95.085,35.061 L77.941,53.437 z M22.916,41.734 L22.916,41.734 C19.22,41.734 16.243,38.757 16.243,34.959 C16.243,31.263 19.22,28.183 22.916,28.183 L22.916,28.183 L50.839,28.183 C49.71,29.004 48.683,29.928 47.657,30.955 C44.577,34.035 42.216,37.73 40.778,41.631 L22.916,41.631 z M54.843,0.157 C26.201,0.157 3,23.358 3,52 C3,80.642 26.201,103.843 54.843,103.843 C83.485,103.843 106.583,80.642 106.583,52 C106.583,23.358 83.485,0.157 54.843,0.157" fill="#414042"/>
      <g>
        <path d="M413.636,58.057 C412.917,59.802 411.89,61.239 410.556,62.574 C409.221,63.806 407.681,64.832 405.936,65.551 C404.191,66.27 402.343,66.68 400.393,66.68 C398.442,66.68 396.594,66.27 394.849,65.551 C393.104,64.832 391.564,63.806 390.332,62.574 C388.997,61.342 387.971,59.802 387.252,58.057 C386.534,56.312 386.123,54.464 386.123,52.616 C386.123,50.665 386.534,48.818 387.252,47.175 C387.971,45.43 388.997,43.89 390.332,42.658 C391.564,41.323 393.104,40.297 394.849,39.578 C396.594,38.86 398.442,38.449 400.393,38.449 C402.343,38.449 404.191,38.86 405.936,39.578 C407.681,40.297 409.221,41.323 410.556,42.658 C411.89,43.993 412.917,45.43 413.636,47.175 C414.354,48.92 414.765,50.768 414.765,52.616 C414.765,54.566 414.457,56.414 413.636,58.057 M422.978,49.844 C422.772,47.688 422.156,45.738 421.335,43.787 C421.232,43.479 421.027,43.171 420.924,42.863 C420.616,42.247 420.308,41.734 420,41.118 C419.795,40.81 419.693,40.605 419.487,40.297 C419.179,39.784 418.769,39.27 418.358,38.757 C418.153,38.449 417.947,38.244 417.742,37.936 C417.537,37.73 417.331,37.525 417.126,37.217 C416.921,37.012 416.715,36.806 416.51,36.601 C414.457,34.548 411.993,33.008 409.324,31.776 C406.552,30.647 403.575,30.031 400.495,30.031 C399.982,30.031 399.469,30.031 398.955,30.134 C396.389,30.339 393.925,30.852 391.667,31.879 C388.895,33.008 386.534,34.651 384.48,36.704 C382.427,38.757 380.785,41.118 379.656,43.787 C378.526,46.559 377.91,49.434 377.91,52.616 C377.91,55.798 378.526,58.673 379.656,61.342 C380.785,64.011 382.427,66.475 384.48,68.425 C386.534,70.479 388.895,72.018 391.667,73.148 C394.438,74.277 397.415,74.893 400.495,74.893 C403.575,74.893 406.655,74.277 409.324,73.148 C412.096,72.018 414.457,70.376 416.51,68.425 C416.715,68.22 416.921,68.015 417.126,67.809 C418.871,65.962 420.308,63.703 421.438,61.342 C422.054,59.905 422.464,58.468 422.772,56.928 C423.08,55.49 423.183,54.053 423.183,52.616 C423.183,51.692 423.08,50.768 422.978,49.844" fill="#414042"/>
        <path d="M632.812,58.057 C632.094,59.802 631.067,61.239 629.733,62.574 C628.398,63.806 626.858,64.832 625.113,65.551 C623.368,66.27 621.52,66.68 619.569,66.68 C617.619,66.68 615.771,66.27 614.026,65.551 C612.281,64.832 610.741,63.806 609.509,62.574 C608.174,61.342 607.148,59.802 606.429,58.057 C605.711,56.312 605.3,54.464 605.3,52.616 C605.3,50.665 605.711,48.818 606.429,47.175 C607.148,45.43 608.174,43.89 609.509,42.658 C610.741,41.323 612.281,40.297 614.026,39.578 C615.771,38.86 617.619,38.449 619.569,38.449 C621.52,38.449 623.368,38.86 625.113,39.578 C626.858,40.297 628.398,41.323 629.733,42.658 C631.067,43.993 632.094,45.43 632.812,47.175 C633.531,48.92 633.942,50.768 633.942,52.616 C633.942,54.566 633.634,56.414 632.812,58.057 M642.154,49.844 C641.949,47.688 641.333,45.738 640.512,43.787 C640.409,43.479 640.204,43.171 640.101,42.863 C639.793,42.247 639.485,41.734 639.177,41.118 C638.972,40.81 638.869,40.605 638.664,40.297 C638.356,39.784 637.945,39.27 637.535,38.757 C637.329,38.449 637.124,38.244 636.919,37.936 C636.714,37.73 636.508,37.525 636.303,37.217 C636.098,37.012 635.892,36.806 635.687,36.601 C633.634,34.548 631.17,33.008 628.501,31.776 C625.729,30.647 622.752,30.031 619.672,30.031 C619.159,30.031 618.646,30.031 618.132,30.134 C615.566,30.339 613.102,30.852 610.843,31.879 C608.072,33.008 605.711,34.651 603.657,36.704 C601.604,38.757 599.962,41.118 598.832,43.787 C597.703,46.559 597.087,49.434 597.087,52.616 C597.087,55.798 597.703,58.673 598.832,61.342 C599.962,64.011 601.604,66.475 603.657,68.425 C605.711,70.479 608.072,72.018 610.843,73.148 C613.615,74.277 616.592,74.893 619.672,74.893 C622.752,74.893 625.832,74.277 628.501,73.148 C631.273,72.018 633.634,70.376 635.687,68.425 C635.892,68.22 636.098,68.015 636.303,67.809 C638.048,65.962 639.485,63.703 640.615,61.342 C641.231,59.905 641.641,58.468 641.949,56.928 C642.257,55.49 642.36,54.053 642.36,52.616 C642.36,51.692 642.257,50.768 642.154,49.844" fill="#414042"/>
        <path d="M125.164,37.833 L135.327,37.833 L135.327,72.532 C135.327,72.942 135.43,73.25 135.738,73.456 C135.943,73.661 136.354,73.866 136.764,73.866 L143.027,73.866 C143.437,73.866 143.745,73.764 144.053,73.456 C144.361,73.25 144.464,72.942 144.464,72.532 L144.464,37.833 L154.627,37.833 C155.038,37.833 155.346,37.73 155.654,37.422 C155.962,37.217 156.064,36.909 156.064,36.499 L156.064,31.366 C156.064,30.955 155.962,30.647 155.654,30.442 C155.346,30.236 155.038,30.031 154.627,30.031 L125.369,30.031 C124.959,30.031 124.651,30.134 124.343,30.442 C124.035,30.75 123.932,30.955 123.932,31.366 L123.932,36.499 C123.932,36.806 124.035,37.114 124.343,37.422 C124.445,37.73 124.753,37.833 125.164,37.833" fill="#414042"/>
        <path d="M172.9,37.833 L183.68,37.833 C184.604,37.833 185.425,37.936 186.143,38.244 C186.965,38.552 187.581,38.962 188.197,39.578 C188.813,40.092 189.223,40.708 189.634,41.426 C189.942,42.145 190.147,42.863 190.147,43.685 C190.147,44.506 189.942,45.327 189.634,46.046 C189.326,46.764 188.813,47.483 188.197,47.996 C187.581,48.51 186.862,49.023 186.143,49.331 C185.322,49.639 184.501,49.844 183.68,49.844 L172.9,49.844 L172.9,37.833 z M188.915,73.148 C189.018,73.25 189.121,73.456 189.326,73.558 C189.531,73.661 189.737,73.764 190.045,73.764 L197.025,73.764 C197.641,73.764 198.052,73.558 198.257,73.148 C198.463,72.737 198.463,72.326 198.257,71.813 L189.223,56.209 C190.66,55.696 191.995,54.977 193.124,54.156 C194.356,53.335 195.383,52.308 196.307,51.281 C197.231,50.255 197.847,49.023 198.36,47.688 C198.873,46.354 199.078,45.019 199.078,43.582 C199.078,41.734 198.668,39.989 197.949,38.346 C197.231,36.704 196.101,35.267 194.767,34.137 C193.432,32.905 191.892,31.982 190.045,31.263 C188.299,30.544 186.349,30.236 184.296,30.236 L165.201,30.236 C164.79,30.236 164.482,30.339 164.174,30.647 C163.866,30.852 163.764,31.16 163.764,31.571 L163.764,72.634 C163.764,72.942 163.866,73.25 164.174,73.558 C164.482,73.764 164.79,73.969 165.201,73.969 L171.361,73.969 C171.771,73.969 172.079,73.866 172.387,73.558 C172.695,73.25 172.798,73.045 172.798,72.634 L172.798,56.825 L180.087,56.825 L188.915,73.148 z" fill="#414042"/>
        <path d="M219.508,58.775 L225.975,45.327 L226.078,45.327 L232.648,58.775 L219.508,58.775 z M248.252,73.25 C248.56,72.84 248.56,72.429 248.252,72.018 L227.72,30.236 C227.618,30.031 227.515,29.826 227.31,29.723 C227.104,29.62 226.899,29.518 226.488,29.518 L225.77,29.518 C225.256,29.518 224.846,29.723 224.538,30.236 L203.698,72.018 C203.493,72.429 203.493,72.84 203.698,73.25 C204.006,73.558 204.314,73.764 204.93,73.764 L210.782,73.764 C211.295,73.764 211.808,73.661 212.116,73.353 C212.424,73.045 212.629,72.737 212.835,72.429 L216.12,65.756 L236.036,65.756 L239.321,72.429 C239.526,72.942 239.834,73.25 240.142,73.456 C240.45,73.661 240.861,73.764 241.374,73.764 L247.225,73.764 C247.636,73.764 248.047,73.558 248.252,73.25" fill="#414042"/>
        <path d="M255.952,73.764 L262.008,73.764 C262.419,73.764 262.727,73.661 263.035,73.353 C263.343,73.148 263.446,72.84 263.446,72.429 L263.446,46.046 L291.266,74.38 L291.266,74.38 L292.909,74.38 C293.319,74.38 293.627,74.277 293.935,74.072 C294.243,73.866 294.346,73.558 294.346,73.148 L294.346,31.468 C294.346,31.16 294.243,30.852 293.935,30.544 C293.627,30.339 293.319,30.134 292.909,30.134 L286.749,30.134 C286.339,30.134 286.031,30.236 285.723,30.544 C285.415,30.75 285.312,31.058 285.312,31.468 L285.312,56.928 L257.594,29.62 L257.594,29.62 L255.849,29.62 C255.438,29.62 255.13,29.723 254.925,29.928 C254.617,30.134 254.514,30.442 254.514,30.852 L254.514,72.634 C254.514,72.942 254.617,73.25 254.925,73.558 C255.233,73.661 255.541,73.764 255.952,73.764" fill="#414042"/>
        <path d="M333.459,62.061 C333.459,60.11 333.048,58.262 332.227,56.825 C331.406,55.388 330.277,54.053 328.942,52.924 C327.607,51.795 326.068,50.871 324.425,50.049 C322.782,49.228 321.14,48.51 319.497,47.894 C316.828,46.867 314.775,45.84 313.543,44.711 C312.311,43.685 311.695,42.453 311.695,41.015 C311.695,40.092 312.209,39.065 313.133,38.141 C314.159,37.217 315.596,36.704 317.444,36.704 C318.368,36.704 319.292,36.909 320.319,37.217 C321.345,37.525 322.269,37.936 323.193,38.346 C324.117,38.757 324.836,39.168 325.452,39.476 C326.17,39.886 326.478,40.092 326.581,40.194 C326.991,40.502 327.505,40.502 327.915,40.297 C328.429,40.092 328.737,39.784 329.045,39.373 L331.611,35.883 C331.816,35.575 331.919,35.164 331.816,34.651 C331.714,34.24 331.508,33.829 331.098,33.624 C330.79,33.419 330.277,33.008 329.455,32.597 C328.634,32.187 327.607,31.674 326.478,31.263 C325.349,30.852 324.014,30.442 322.474,30.031 C320.935,29.723 319.395,29.518 317.65,29.518 C314.98,29.518 312.619,29.928 310.771,30.647 C308.821,31.366 307.281,32.289 306.049,33.419 C304.817,34.548 303.893,35.883 303.38,37.32 C302.764,38.757 302.456,40.194 302.456,41.529 C302.456,43.377 302.867,45.019 303.585,46.456 C304.304,47.894 305.228,49.126 306.46,50.255 C307.692,51.281 309.026,52.308 310.566,53.027 C312.106,53.848 313.646,54.464 315.186,55.08 C317.958,56.106 320.113,57.236 321.551,58.365 C322.988,59.494 323.604,60.829 323.604,62.369 C323.604,63.703 322.988,64.73 321.859,65.654 C320.729,66.578 319.292,66.988 317.547,66.988 C316.52,66.988 315.391,66.783 314.262,66.372 C313.133,65.962 312.003,65.551 311.079,65.14 C310.053,64.73 309.334,64.216 308.616,63.806 C307.692,63.292 307.589,63.19 307.486,63.087 C307.178,62.882 306.768,62.779 306.254,62.779 C305.741,62.779 305.33,63.087 305.022,63.498 L302.661,67.296 C302.353,67.809 302.251,68.22 302.353,68.425 C302.456,68.631 302.661,68.939 302.969,69.247 C303.38,69.555 303.893,69.965 304.715,70.479 C305.536,70.992 306.562,71.608 307.692,72.121 C308.924,72.634 310.361,73.148 312.106,73.558 C313.749,73.969 315.699,74.174 317.752,74.174 C320.113,74.174 322.269,73.866 324.22,73.148 C326.068,72.429 327.813,71.505 329.147,70.376 C330.482,69.247 331.508,67.912 332.227,66.475 C333.151,65.243 333.459,63.6 333.459,62.061" fill="#414042"/>
        <path d="M364.154,43.89 C364.154,44.814 363.949,45.635 363.641,46.354 C363.333,47.072 362.819,47.791 362.204,48.407 C361.588,49.023 360.869,49.434 360.048,49.742 C359.226,50.049 358.405,50.255 357.481,50.255 L349.782,50.255 L349.782,38.038 L357.481,38.038 C358.405,38.038 359.329,38.141 360.048,38.449 C360.869,38.757 361.588,39.168 362.204,39.681 C362.819,40.194 363.333,40.81 363.641,41.529 C363.949,42.247 364.154,43.069 364.154,43.89 M368.568,34.24 C367.234,33.008 365.591,31.982 363.743,31.263 C361.896,30.544 359.945,30.134 357.892,30.134 L342.185,30.134 C341.774,30.134 341.466,30.236 341.158,30.544 C340.85,30.75 340.748,31.058 340.748,31.468 L340.748,72.532 C340.748,72.942 340.85,73.25 341.158,73.456 C341.466,73.661 341.774,73.866 342.185,73.866 L348.345,73.866 C348.755,73.866 349.063,73.764 349.371,73.456 C349.679,73.25 349.782,72.942 349.782,72.532 L349.782,58.057 L358.097,58.057 C360.15,58.057 362.101,57.646 363.949,56.928 C365.797,56.209 367.336,55.182 368.774,53.848 C370.108,52.616 371.237,51.076 372.059,49.331 C372.88,47.586 373.291,45.84 373.291,43.89 C373.291,42.042 372.88,40.194 372.059,38.552 C371.032,36.909 369.903,35.472 368.568,34.24" fill="#414042"/>
        <path d="M471.125,37.833 L481.288,37.833 L481.288,72.532 C481.288,72.942 481.391,73.25 481.699,73.456 C481.904,73.661 482.314,73.866 482.725,73.866 L488.987,73.866 C489.398,73.866 489.706,73.764 490.014,73.456 C490.322,73.25 490.425,72.942 490.425,72.532 L490.425,37.833 L500.588,37.833 C500.998,37.833 501.306,37.73 501.614,37.422 C501.922,37.217 502.025,36.909 502.025,36.499 L502.025,31.366 C502.025,30.955 501.922,30.647 501.614,30.442 C501.306,30.236 500.998,30.031 500.588,30.031 L471.33,30.031 C470.919,30.031 470.611,30.134 470.303,30.442 C469.995,30.647 469.893,30.955 469.893,31.366 L469.893,36.499 C469.893,36.806 469.995,37.114 470.303,37.422 C470.406,37.73 470.714,37.833 471.125,37.833" fill="#414042"/>
        <path d="M528.819,58.775 L515.679,58.775 L522.146,45.327 L522.249,45.327 L528.819,58.775 z M535.492,72.532 C535.697,73.045 536.005,73.353 536.313,73.558 C536.621,73.764 537.032,73.866 537.545,73.866 L543.396,73.866 C543.91,73.866 544.32,73.661 544.628,73.353 C544.936,72.942 544.936,72.532 544.628,72.121 L523.994,30.339 C523.891,30.134 523.789,29.928 523.583,29.826 C523.378,29.723 523.173,29.62 522.762,29.62 L522.146,29.62 C521.633,29.62 521.222,29.826 520.914,30.339 L500.074,72.121 C499.869,72.532 499.869,72.942 500.074,73.353 C500.28,73.661 500.69,73.866 501.306,73.866 L507.158,73.866 C507.671,73.866 508.184,73.764 508.492,73.456 C508.8,73.25 509.108,72.942 509.211,72.532 L512.496,65.859 L532.412,65.859 L535.492,72.532 z" fill="#414042"/>
        <path d="M554.381,72.532 C554.381,72.942 554.484,73.25 554.792,73.456 C555.1,73.661 555.408,73.866 555.818,73.866 L562.08,73.866 C562.491,73.866 562.799,73.764 563.107,73.456 C563.415,73.25 563.518,72.942 563.518,72.532 L563.518,37.833 L573.681,37.833 C574.092,37.833 574.4,37.73 574.707,37.422 C575.015,37.217 575.118,36.909 575.118,36.498 L575.118,31.468 C575.118,31.058 575.015,30.75 574.707,30.544 C574.4,30.339 574.092,30.134 573.681,30.134 L544.423,30.134 C544.012,30.134 543.704,30.236 543.396,30.544 C543.089,30.75 542.986,31.058 542.986,31.468 L542.986,36.498 C542.986,36.909 543.089,37.217 543.396,37.422 C543.704,37.628 544.012,37.833 544.423,37.833 L554.586,37.833 L554.586,72.532 z" fill="#414042"/>
        <path d="M589.388,30.134 L583.125,30.134 C582.715,30.134 582.407,30.236 582.099,30.544 C581.791,30.75 581.688,31.058 581.688,31.468 L581.688,72.532 C581.688,72.942 581.791,73.148 582.099,73.456 C582.407,73.661 582.715,73.866 583.125,73.866 L589.388,73.866 C589.798,73.866 590.106,73.764 590.414,73.456 C590.722,73.25 590.825,72.942 590.825,72.532 L590.825,31.468 C590.825,31.16 590.722,30.852 590.414,30.544 C590.106,30.236 589.798,30.134 589.388,30.134" fill="#414042"/>
        <path d="M687.632,30.544 C687.324,30.339 687.016,30.134 686.606,30.134 L680.446,30.134 C680.036,30.134 679.728,30.236 679.42,30.544 C679.112,30.75 679.009,31.058 679.009,31.468 L679.009,56.928 L651.291,29.62 L651.291,29.62 L649.648,29.62 C649.238,29.62 648.93,29.723 648.622,29.928 C648.314,30.134 648.211,30.442 648.211,30.852 L648.211,72.634 C648.211,73.045 648.314,73.25 648.622,73.558 C648.93,73.764 649.238,73.969 649.648,73.969 L655.705,73.969 C656.116,73.969 656.424,73.866 656.732,73.558 C657.04,73.353 657.143,73.045 657.143,72.634 L657.143,46.046 L684.963,74.38 L684.963,74.38 L686.606,74.38 C687.016,74.38 687.324,74.277 687.632,74.072 C687.94,73.866 688.043,73.558 688.043,73.148 L688.043,31.468 C688.043,31.058 687.838,30.75 687.632,30.544" fill="#414042"/>
        <path d="M455.212,43.582 C455.212,44.403 455.007,45.225 454.699,45.943 C454.391,46.662 453.878,47.38 453.262,47.894 C452.646,48.407 452.03,48.92 451.209,49.228 C450.388,49.536 449.566,49.742 448.745,49.742 L438.171,49.742 L438.171,37.833 L448.848,37.833 C449.669,37.833 450.49,37.936 451.311,38.244 C452.133,38.552 452.749,38.962 453.365,39.476 C453.981,39.989 454.391,40.605 454.802,41.323 C455.11,42.042 455.212,42.863 455.212,43.582 M461.577,51.179 C462.501,50.049 463.117,48.92 463.631,47.586 C464.144,46.251 464.349,44.917 464.349,43.479 C464.349,43.069 464.349,42.555 464.246,42.145 C464.144,40.81 463.733,39.476 463.117,38.244 C462.399,36.601 461.269,35.164 459.935,33.932 C458.6,32.7 456.958,31.776 455.212,31.058 C453.467,30.339 451.517,30.031 449.464,30.031 L430.266,30.031 C429.856,30.031 429.548,30.134 429.24,30.442 C428.932,30.75 428.829,31.058 428.829,31.468 L428.829,72.532 C428.829,72.942 428.932,73.25 429.24,73.558 C429.548,73.866 429.856,73.969 430.266,73.969 L436.426,73.969 C436.837,73.969 437.145,73.866 437.452,73.558 C437.76,73.25 437.863,72.942 437.863,72.532 L437.863,56.825 L444.947,56.825 L453.775,73.148 C453.878,73.25 453.981,73.456 454.186,73.558 C454.391,73.764 454.699,73.764 455.007,73.764 L461.988,73.764 C462.604,73.764 463.117,73.558 463.323,73.045 C463.425,72.737 463.528,72.532 463.425,72.224 C463.425,72.018 463.323,71.813 463.22,71.711 L454.597,56.106 C456.034,55.593 457.266,54.874 458.395,54.053 C459.627,53.232 460.653,52.308 461.577,51.179" fill="#414042"/>
      </g>
      <g>
        <path d="M948.797,31.058 L942.637,31.058 C942.226,31.058 941.919,31.16 941.611,31.468 C941.303,31.674 941.2,31.982 941.2,32.392 L941.2,57.852 L913.482,30.544 L913.482,30.544 L911.737,30.544 C911.326,30.544 911.018,30.647 910.71,30.852 C910.402,31.058 910.3,31.366 910.3,31.776 L910.3,73.558 C910.3,73.969 910.402,74.277 910.71,74.482 C911.018,74.688 911.326,74.893 911.737,74.893 L917.794,74.893 C918.204,74.893 918.512,74.79 918.82,74.482 C919.128,74.174 919.231,73.969 919.231,73.558 L919.231,46.97 L945.306,73.558 L945.306,73.558 L948.694,73.558 C949.105,73.558 949.413,73.456 949.721,73.25 C950.029,73.045 950.131,72.737 950.131,72.326 L950.131,32.289 C950.131,31.982 950.029,31.674 949.721,31.366 C949.515,31.16 949.207,31.058 948.797,31.058" fill="#414042"/>
        <path d="M741.631,59.083 L728.491,59.083 L734.958,45.635 L735.061,45.635 L741.631,59.083 z M736.806,30.544 C736.703,30.339 736.601,30.134 736.395,30.031 C736.19,29.928 735.985,29.826 735.574,29.826 L734.855,29.826 C734.342,29.826 733.932,30.031 733.624,30.544 L712.784,72.326 C712.578,72.737 712.578,73.148 712.784,73.558 C713.092,73.969 713.4,74.072 714.016,74.072 L719.867,74.072 C720.381,74.072 720.894,73.969 721.202,73.661 C721.51,73.353 721.715,73.045 721.92,72.737 L725.206,66.064 L745.121,66.064 L748.406,72.737 C748.612,73.25 748.92,73.558 749.228,73.764 C749.536,73.969 749.946,74.072 750.46,74.072 L756.311,74.072 C756.824,74.072 757.235,73.866 757.543,73.558 C757.851,73.148 757.851,72.737 757.543,72.326 L736.806,30.544 z" fill="#414042"/>
        <path d="M985.241,59.083 L972.1,59.083 L978.568,45.635 L978.67,45.635 L985.241,59.083 z M980.416,30.544 C980.313,30.339 980.21,30.134 980.005,30.031 C979.8,29.928 979.594,29.826 979.184,29.826 L978.465,29.826 C977.952,29.826 977.541,30.031 977.233,30.544 L956.393,72.326 C956.188,72.737 956.188,73.148 956.393,73.558 C956.701,73.969 957.009,74.072 957.625,74.072 L963.477,74.072 C963.99,74.072 964.503,73.969 964.811,73.661 C965.119,73.353 965.325,73.045 965.53,72.737 L968.815,66.064 L988.731,66.064 L992.016,72.737 C992.221,73.25 992.529,73.558 992.837,73.764 C993.145,73.969 993.556,74.072 994.069,74.072 L999.921,74.072 C1000.434,74.072 1000.845,73.866 1001.153,73.558 C1001.461,73.148 1001.461,72.737 1001.153,72.326 L980.416,30.544 z" fill="#414042"/>
        <path d="M789.675,66.372 L772.737,66.372 L772.737,31.674 C772.737,31.263 772.634,31.058 772.326,30.75 C772.018,30.544 771.71,30.339 771.299,30.339 L765.14,30.339 C764.729,30.339 764.421,30.442 764.113,30.75 C763.805,30.955 763.703,31.263 763.703,31.674 L763.703,72.737 C763.703,73.148 763.805,73.456 764.113,73.661 C764.421,73.866 764.729,74.072 765.14,74.072 L789.675,74.072 C790.086,74.072 790.394,73.969 790.702,73.661 C791.01,73.456 791.113,73.148 791.113,72.737 L791.113,67.604 C791.113,67.296 791.01,66.988 790.702,66.68 C790.394,66.578 789.983,66.372 789.675,66.372" fill="#414042"/>
        <path d="M818.625,30.442 L789.367,30.442 C788.957,30.442 788.649,30.544 788.341,30.852 C788.033,31.058 787.93,31.366 787.93,31.776 L787.93,36.909 C787.93,37.32 788.033,37.628 788.341,37.833 C788.649,38.038 788.957,38.244 789.367,38.244 L799.531,38.244 L799.531,72.942 C799.531,73.353 799.633,73.661 799.941,73.866 C800.249,74.072 800.557,74.277 800.968,74.277 L807.23,74.277 C807.641,74.277 807.949,74.174 808.257,73.866 C808.565,73.661 808.667,73.353 808.667,72.942 L808.667,38.038 L818.83,38.038 C819.241,38.038 819.549,37.936 819.857,37.628 C820.165,37.422 820.268,37.114 820.268,36.704 L820.268,31.571 C820.268,31.263 820.165,30.955 819.857,30.647 C819.344,30.544 819.036,30.442 818.625,30.442" fill="#414042"/>
        <path d="M856.096,30.442 L828.891,30.442 C828.48,30.442 828.172,30.544 827.864,30.852 C827.556,31.058 827.454,31.366 827.454,31.776 L827.454,72.84 C827.454,73.25 827.556,73.456 827.864,73.764 C828.172,73.969 828.48,74.174 828.891,74.174 L856.096,74.174 C856.506,74.174 856.814,74.072 857.122,73.764 C857.43,73.558 857.533,73.25 857.533,72.84 L857.533,67.707 C857.533,67.296 857.43,67.091 857.122,66.783 C856.814,66.578 856.506,66.372 856.096,66.372 L836.385,66.372 L836.385,55.798 L851.065,55.798 C851.476,55.798 851.784,55.696 852.092,55.388 C852.4,55.08 852.503,54.874 852.503,54.464 L852.503,49.331 C852.503,48.92 852.4,48.715 852.092,48.407 C851.784,48.202 851.476,47.996 851.065,47.996 L836.385,47.996 L836.385,38.038 L856.096,38.038 C856.506,38.038 856.814,37.936 857.122,37.628 C857.43,37.422 857.533,37.114 857.533,36.704 L857.533,31.571 C857.533,31.263 857.43,30.955 857.122,30.647 C856.814,30.544 856.506,30.442 856.096,30.442" fill="#414042"/>
        <path d="M1130.811,30.442 L1103.606,30.442 C1103.196,30.442 1102.888,30.544 1102.58,30.852 C1102.272,31.058 1102.169,31.366 1102.169,31.776 L1102.169,72.84 C1102.169,73.25 1102.272,73.456 1102.58,73.764 C1102.888,73.969 1103.196,74.174 1103.606,74.174 L1130.811,74.174 C1131.222,74.174 1131.53,74.072 1131.838,73.764 C1132.146,73.558 1132.248,73.25 1132.248,72.84 L1132.248,67.707 C1132.248,67.296 1132.146,67.091 1131.838,66.783 C1131.53,66.578 1131.222,66.372 1130.811,66.372 L1111.1,66.372 L1111.1,55.798 L1125.781,55.798 C1126.191,55.798 1126.499,55.696 1126.807,55.388 C1127.115,55.182 1127.218,54.874 1127.218,54.464 L1127.218,49.331 C1127.218,48.92 1127.115,48.715 1126.807,48.407 C1126.499,48.202 1126.191,47.996 1125.781,47.996 L1111.1,47.996 L1111.1,38.038 L1130.811,38.038 C1131.222,38.038 1131.53,37.936 1131.838,37.628 C1132.146,37.422 1132.248,37.114 1132.248,36.704 L1132.248,31.571 C1132.248,31.263 1132.146,30.955 1131.838,30.647 C1131.53,30.544 1131.222,30.442 1130.811,30.442" fill="#414042"/>
        <path d="M1030.103,30.442 L1000.845,30.442 C1000.434,30.442 1000.126,30.544 999.818,30.852 C999.51,31.058 999.408,31.366 999.408,31.776 L999.408,36.909 C999.408,37.32 999.51,37.628 999.818,37.833 C1000.126,38.038 1000.434,38.244 1000.845,38.244 L1011.008,38.244 L1011.008,72.942 C1011.008,73.353 1011.111,73.661 1011.419,73.866 C1011.727,74.072 1012.035,74.277 1012.445,74.277 L1018.707,74.277 C1019.118,74.277 1019.426,74.174 1019.734,73.866 C1020.042,73.661 1020.145,73.353 1020.145,72.942 L1020.145,38.038 L1030.308,38.038 C1030.719,38.038 1031.026,37.936 1031.334,37.628 C1031.642,37.422 1031.745,37.114 1031.745,36.704 L1031.745,31.571 C1031.745,31.263 1031.642,30.955 1031.334,30.647 C1030.821,30.544 1030.513,30.442 1030.103,30.442" fill="#414042"/>
        <path d="M1046.015,30.442 L1039.752,30.442 C1039.342,30.442 1039.034,30.544 1038.726,30.852 C1038.418,31.058 1038.315,31.366 1038.315,31.776 L1038.315,72.84 C1038.315,73.25 1038.418,73.456 1038.726,73.764 C1039.034,73.969 1039.342,74.174 1039.752,74.174 L1046.015,74.174 C1046.425,74.174 1046.733,74.072 1047.041,73.764 C1047.349,73.558 1047.452,73.25 1047.452,72.84 L1047.452,31.776 C1047.452,31.468 1047.349,31.16 1047.041,30.852 C1046.733,30.544 1046.425,30.442 1046.015,30.442" fill="#414042"/>
        <path d="M1095.702,30.442 L1088.823,30.442 C1088.515,30.442 1088.207,30.544 1088.002,30.647 C1087.797,30.852 1087.694,30.955 1087.591,31.16 L1074.759,57.749 L1074.451,57.749 L1061.619,31.16 C1061.516,30.955 1061.413,30.852 1061.208,30.647 C1061.003,30.442 1060.695,30.442 1060.387,30.442 L1053.611,30.442 C1053.098,30.442 1052.688,30.647 1052.38,30.955 C1052.072,31.366 1052.072,31.776 1052.38,32.187 L1073.117,73.969 C1073.425,74.482 1073.835,74.688 1074.349,74.688 L1075.067,74.688 C1075.683,74.688 1076.094,74.482 1076.299,73.969 L1097.036,32.187 C1097.241,31.776 1097.241,31.366 1097.036,30.955 C1096.625,30.647 1096.215,30.442 1095.702,30.442" fill="#414042"/>
        <path d="M1164.483,53.129 C1163.149,52 1161.609,51.076 1159.966,50.255 C1158.323,49.434 1156.681,48.715 1155.038,48.099 C1152.369,47.072 1150.316,46.046 1149.084,44.917 C1147.852,43.89 1147.236,42.658 1147.236,41.221 C1147.236,40.297 1147.75,39.27 1148.674,38.346 C1149.7,37.422 1151.137,36.909 1152.985,36.909 C1153.909,36.909 1154.833,37.114 1155.86,37.422 C1156.886,37.73 1157.81,38.141 1158.734,38.552 C1159.658,38.962 1160.377,39.373 1160.993,39.681 C1161.609,40.092 1162.019,40.297 1162.122,40.4 C1162.533,40.708 1163.046,40.708 1163.457,40.502 C1163.97,40.297 1164.278,39.989 1164.586,39.578 L1167.152,36.088 C1167.358,35.78 1167.46,35.369 1167.358,34.856 C1167.255,34.445 1167.05,34.035 1166.639,33.829 C1166.331,33.624 1165.715,33.213 1164.996,32.803 C1164.175,32.392 1163.149,31.879 1162.019,31.468 C1160.89,31.058 1159.555,30.647 1158.016,30.236 C1156.476,29.928 1154.936,29.723 1153.191,29.723 C1150.521,29.723 1148.16,30.134 1146.312,30.852 C1144.362,31.571 1142.822,32.495 1141.59,33.624 C1140.358,34.753 1139.434,36.088 1138.921,37.525 C1138.305,38.962 1137.997,40.4 1137.997,41.734 C1137.997,43.582 1138.408,45.225 1139.126,46.662 C1139.845,48.099 1140.769,49.331 1142.001,50.46 C1143.13,51.487 1144.567,52.513 1146.107,53.232 C1147.647,54.053 1149.187,54.669 1150.727,55.285 C1153.499,56.312 1155.654,57.441 1157.092,58.673 C1158.529,59.802 1159.247,61.137 1159.247,62.677 C1159.247,63.908 1158.631,65.038 1157.502,65.962 C1156.373,66.886 1154.936,67.296 1153.191,67.296 C1152.164,67.296 1151.035,67.091 1149.906,66.68 C1148.776,66.27 1147.647,65.859 1146.723,65.448 C1145.697,65.038 1144.875,64.524 1144.259,64.114 C1143.335,63.6 1143.233,63.498 1143.13,63.395 C1142.822,63.19 1142.411,63.087 1141.898,63.087 C1141.385,63.087 1140.974,63.395 1140.666,63.806 L1138.305,67.604 C1137.997,68.117 1137.894,68.528 1137.997,68.733 C1138.1,68.939 1138.305,69.247 1138.613,69.555 C1139.024,69.863 1139.537,70.273 1140.358,70.787 C1141.18,71.3 1142.206,71.916 1143.335,72.429 C1144.567,72.942 1146.005,73.456 1147.75,73.866 C1149.392,74.277 1151.343,74.482 1153.396,74.482 C1155.757,74.482 1157.913,74.174 1159.863,73.456 C1161.711,72.737 1163.457,71.813 1164.791,70.684 C1166.126,69.555 1167.152,68.22 1167.871,66.783 C1168.589,65.346 1169,63.703 1169,62.163 C1169,60.213 1168.589,58.365 1167.768,56.928 C1166.947,55.593 1165.818,54.259 1164.483,53.129" fill="#414042"/>
        <path d="M892.745,43.993 C892.745,44.814 892.54,45.635 892.232,46.354 C891.924,47.072 891.41,47.791 890.794,48.304 C890.178,48.818 889.562,49.331 888.741,49.639 C887.92,49.947 887.099,50.152 886.277,50.152 L875.601,50.152 L875.601,38.141 L886.277,38.141 C887.099,38.141 887.92,38.244 888.741,38.552 C889.562,38.86 890.178,39.27 890.794,39.784 C891.41,40.297 891.821,40.913 892.232,41.631 C892.54,42.453 892.745,43.171 892.745,43.993 M899.007,51.589 C899.931,50.46 900.547,49.331 901.06,47.996 C901.574,46.662 901.779,45.327 901.779,43.89 C901.779,43.479 901.779,42.966 901.676,42.555 C901.574,41.221 901.163,39.886 900.547,38.654 C899.828,37.012 898.699,35.575 897.365,34.343 C896.03,33.111 894.387,32.187 892.642,31.468 C890.897,30.75 888.947,30.442 886.893,30.442 L867.696,30.442 C867.285,30.442 866.977,30.544 866.67,30.852 C866.362,31.16 866.259,31.468 866.259,31.879 L866.259,72.942 C866.259,73.353 866.362,73.661 866.67,73.969 C866.977,74.277 867.285,74.38 867.696,74.38 L873.856,74.38 C874.266,74.38 874.574,74.277 874.882,73.969 C875.19,73.661 875.293,73.353 875.293,72.942 L875.293,57.133 L882.376,57.133 L891.205,73.456 C891.308,73.558 891.41,73.764 891.616,73.866 C891.821,74.072 892.129,74.072 892.437,74.072 L899.11,73.969 C899.828,73.969 900.239,73.764 900.444,73.25 C900.547,72.942 900.65,72.737 900.547,72.429 C900.547,72.224 900.444,72.018 900.342,71.813 L891.308,56.312 C892.848,55.901 893.669,55.593 895.209,54.566 C897.057,53.745 898.186,52.616 899.007,51.589" fill="#414042"/>
      </g>
    </g>
  </g>
</svg>
